<?xml version="1.0" encoding="UTF-8"?>
<svg version="1.1" xmlns="http://www.w3.org/2000/svg" width="1024" height="1024">
<path d="M0 0 C337.92 0 675.84 0 1024 0 C1024 337.92 1024 675.84 1024 1024 C686.08 1024 348.16 1024 0 1024 C0 686.08 0 348.16 0 0 Z " fill="#FDFDFD" transform="translate(0,0)"/>
<path d="M0 0 C51.15 0 102.3 0 155 0 C159.4398995 8.879799 163.79467062 17.73722422 167.9375 26.75 C169.06949497 29.20090346 170.20210046 31.65151188 171.3359375 34.1015625 C171.62966751 34.73653656 171.92339752 35.37151062 172.22602844 36.02572632 C175.46339923 43.01549795 178.74946311 49.98221291 182.03598022 56.94897461 C187.59650531 68.7362232 193.11772326 80.53971045 198.56494141 92.37988281 C202.32865634 100.5576745 206.12649062 108.71918189 209.9375 116.875 C214.9785113 127.66329872 220.00496537 138.45813986 225.00634766 149.26489258 C228.0247359 155.7779406 231.07262882 162.27564128 234.1484375 168.76171875 C235.19446781 170.9729491 236.24011231 173.18436152 237.28567505 175.39581299 C237.96622918 176.83183945 238.64888384 178.26687247 239.33370972 179.7008667 C240.28615736 181.69534358 241.23161728 183.69299778 242.17578125 185.69140625 C242.72145752 186.83810791 243.26713379 187.98480957 243.8293457 189.16625977 C245 192 245 192 245 195 C245.66 195 246.32 195 247 195 C247.09120117 194.33621338 247.18240234 193.67242676 247.27636719 192.98852539 C248.20963161 189.13424406 249.8574316 185.73353747 251.578125 182.18359375 C251.94078461 181.42359573 252.30344421 180.66359772 252.67709351 179.88056946 C253.45687972 178.24787072 254.23917992 176.61637076 255.02374268 174.98596191 C256.683606 171.53636095 258.33133191 168.08101341 259.97952271 164.62582397 C260.81167671 162.88142244 261.64442126 161.1373025 262.47775269 159.39346313 C265.91205658 152.20257689 269.28408836 144.98480913 272.625 137.75 C275.98973732 130.47133224 279.36907092 123.20023323 282.79296875 115.94921875 C283.11986694 115.25690155 283.44676514 114.56458435 283.78356934 113.85128784 C284.45430265 112.43099921 285.1250589 111.0107214 285.7958374 109.5904541 C291.95718183 96.54277065 298.01682829 83.45316775 303.99212646 70.3192749 C309.38504301 58.46972728 314.89047244 46.67684956 320.45657349 34.90774536 C324.91790463 25.47302465 329.31521896 16.01667586 333.52709961 6.46704102 C335.90384844 1.09615156 335.90384844 1.09615156 337 0 C388.48 0 439.96 0 493 0 C493 207.57 493 415.14 493 629 C484.9370156 627.75954086 477.43186995 626.46619938 469.625 624.4375 C419.39554947 611.96521167 367.53899724 604.62645624 316 600.3125 C315.27253571 600.25156158 314.54507141 600.19062317 313.79556274 600.12783813 C302.87341504 599.22409816 291.9445293 598.56562735 281 598 C280.54794189 597.09515869 280.09588379 596.19031738 279.63012695 595.25805664 C276.13759852 588.26936635 272.64119495 581.28265051 269.13705444 574.29977417 C250.76637436 537.68813454 250.76637436 537.68813454 244.34057617 524.03686523 C239.39741848 513.60754781 234.17512391 503.31544615 229 493 C221.5118885 478.07076184 214.08171253 463.12749557 207 448 C206.64341309 447.23880859 206.28682617 446.47761719 205.91943359 445.69335938 C205.5683252 444.94376953 205.2172168 444.19417969 204.85546875 443.421875 C204.17455547 441.96871424 203.49356805 440.51558823 202.8125 439.0625 C202.49297363 438.37969971 202.17344727 437.69689941 201.84423828 436.9934082 C199.31962668 431.6216318 196.67414802 426.3160302 193.99926758 421.01782227 C191.58371962 416.21564446 189.27190242 411.37160553 187 406.5 C184.55117118 401.25377138 182.04882922 396.04273431 179.4375 390.875 C175.63512111 383.34061993 171.94407715 375.75261545 168.2649231 368.15753174 C167.59559446 366.77588544 166.92574523 365.39449121 166.25534058 364.0133667 C165.29883588 362.04223331 164.34442907 360.07009762 163.390625 358.09765625 C162.83407227 356.94789307 162.27751953 355.79812988 161.70410156 354.61352539 C159.73586373 350.43990245 157.874103 346.21673174 156 342 C155.505 470.205 155.505 470.205 155 601 C152.7081281 602.14593595 151.06726648 602.27390375 148.515625 602.5078125 C117.17732717 605.59035295 85.75101227 610.18389207 55 617 C53.95038086 617.23041992 52.90076172 617.46083984 51.81933594 617.69824219 C43.87483852 619.44477244 35.93800409 621.22391689 28 623 C18.76 624.98 9.52 626.96 0 629 C0 421.43 0 213.86 0 0 Z " fill="#EC1811" transform="translate(266,198)"/>
<path d="M0 0 C51.48 0 102.96 0 156 0 C156 207.57 156 415.14 156 629 C141.37966686 626.75071798 141.37966686 626.75071798 136.578125 625.5625 C135.00998047 625.17964844 135.00998047 625.17964844 133.41015625 624.7890625 C131.84587891 624.39847656 131.84587891 624.39847656 130.25 624 C128.130376 623.47848472 126.01058705 622.95763939 123.890625 622.4375 C122.89135986 622.18299072 121.89209473 621.92848145 120.86254883 621.66625977 C118.05262872 620.96763227 118.05262872 620.96763227 115.36206055 620.62866211 C113.05729741 620.29089307 111.12997389 619.9442865 109 619 C107.20948008 616.30626933 106.30378496 614.52921599 105.3125 611.5625 C104.75548954 610.10516344 104.19426193 608.64943198 103.62890625 607.1953125 C103.22502686 606.12265137 103.22502686 606.12265137 102.81298828 605.02832031 C101.33547979 601.34209191 99.33985013 597.95979644 97.359375 594.52734375 C95.69464151 591.43227891 94.37698693 588.23277388 93 585 C91.89249212 582.74133861 90.76591467 580.49197206 89.625 578.25 C82.64684191 564.42559922 76.01582782 550.42686615 69.3515625 536.44921875 C68.5052206 534.67447332 67.65886642 532.89973374 66.8125 531.125 C66.38694824 530.23200195 65.96139648 529.33900391 65.52294922 528.41894531 C62.57767412 522.25480758 59.59418043 516.11006926 56.59375 509.97265625 C56.20193039 509.17039612 55.81011078 508.36813599 55.40641785 507.54156494 C53.45624849 503.54872631 51.50310953 499.55740041 49.54418945 495.56884766 C45.72192129 487.76319166 42.00175141 479.92082037 38.44921875 471.98828125 C38.10164017 471.21679245 37.75406158 470.44530365 37.39595032 469.6504364 C35 464.24310967 35 464.24310967 35 462 C34.34 462 33.68 462 33 462 C32.76925781 461.44763672 32.53851562 460.89527344 32.30078125 460.32617188 C28.1626355 450.45514042 23.98012404 440.65129873 19.10058594 431.12133789 C15.75106247 424.57386434 12.61795701 417.92811884 9.50024414 411.26757812 C7.72976735 407.51182536 5.94693932 403.82671284 3.828125 400.25390625 C-0.17549426 393.12780617 -0.26998952 387.0436374 -0.1953125 379.0390625 C-0.1924826 377.89335785 -0.18965271 376.7476532 -0.18673706 375.56723022 C-0.17557135 371.91971245 -0.15047299 368.27244315 -0.125 364.625 C-0.11496555 362.14713897 -0.10584051 359.66927408 -0.09765625 357.19140625 C-0.0756438 351.12751986 -0.04220194 345.06377769 0 339 C-0.32274902 339.72179443 -0.64549805 340.44358887 -0.97802734 341.18725586 C-2.43707879 344.44034773 -3.9058932 347.68893758 -5.375 350.9375 C-5.88289062 352.07380859 -6.39078125 353.21011719 -6.9140625 354.38085938 C-7.40390625 355.46044922 -7.89375 356.54003906 -8.3984375 357.65234375 C-9.07398682 359.15269165 -9.07398682 359.15269165 -9.76318359 360.68334961 C-11 363 -11 363 -13 364 C-17.57463205 355.08074533 -21.90418517 346.08732125 -26 336.9375 C-29.19909314 329.80153244 -32.57100379 322.83935553 -36.31469727 315.97485352 C-39.98868113 309.23032852 -43.03700765 302.28473143 -46.0234375 295.21484375 C-49.76462283 286.37618161 -53.56600631 277.65336276 -57.96875 269.12304688 C-61.29752038 262.59149543 -64.13065777 255.85879745 -66.94335938 249.09179688 C-68.72133917 244.84207022 -70.58752259 240.93266866 -73 237 C-74.03001339 234.67975931 -75.02789008 232.34508992 -76 230 C-79.7983889 221.19977225 -83.66659942 212.4442182 -87.77832031 203.78515625 C-91.1668078 196.6216018 -91.1668078 196.6216018 -90.48413086 194.07763672 C-87.39129657 186.73028097 -84.0260097 179.51764006 -80.60498047 172.31884766 C-78.80483255 168.530527 -77.01449697 164.73756747 -75.22265625 160.9453125 C-74.68114426 159.80029266 -74.68114426 159.80029266 -74.12869263 158.63214111 C-70.88549482 151.7702125 -67.68654765 144.88843316 -64.5 138 C-61.09026074 130.63307656 -57.66517856 123.27420704 -54.19921875 115.93359375 C-53.87281403 115.24226349 -53.5464093 114.55093323 -53.21011353 113.83865356 C-52.54080789 112.42123672 -51.87148604 111.00382753 -51.20214844 109.58642578 C-45.0419997 96.53983551 -38.98255268 83.45180712 -33.00787354 70.3192749 C-27.61495699 58.46972728 -22.10952756 46.67684956 -16.54342651 34.90774536 C-12.08209537 25.47302465 -7.68478104 16.01667586 -3.47290039 6.46704102 C-1.09615156 1.09615156 -1.09615156 1.09615156 0 0 Z " fill="#980404" transform="translate(603,198)"/>
<path d="M0 0 C1.77538859 2.66308289 3.06979664 5.15122605 4.40625 8.046875 C5.13751099 9.62625854 5.13751099 9.62625854 5.88354492 11.23754883 C6.4169751 12.39665771 6.95040527 13.5557666 7.5 14.75 C8.06792494 15.98014972 8.63604553 17.21020913 9.2043457 18.44018555 C10.45335841 21.1443003 11.70085255 23.84911033 12.94775391 26.55419922 C14.74416591 30.4489805 16.54850002 34.34004742 18.35466003 38.23031616 C33.79124395 71.48119305 33.79124395 71.48119305 39.74487305 85.48754883 C42.6641064 92.34161436 45.81515352 99.08152268 48.98074341 105.82427979 C52.05683507 112.39055059 55.10045497 118.97205285 58.15136719 125.55004883 C58.96307066 127.29961639 59.77524047 129.04896767 60.58789062 130.7980957 C66.13559506 142.73932784 71.59579783 154.71645473 76.98187256 166.73141479 C79.59658066 172.55749106 82.23476281 178.37295871 84.875 184.1875 C85.17871521 184.85679535 85.48243042 185.5260907 85.79534912 186.21566772 C89.83011379 195.10193171 93.90405614 203.96931486 98.015625 212.8203125 C98.44026031 213.73466568 98.86489563 214.64901886 99.30239868 215.59107971 C101.38635696 220.0764563 103.4737533 224.56019354 105.56591797 229.04174805 C109.19822408 236.83796444 112.74614327 244.63527474 115.99755859 252.6003418 C117.27031504 255.64708392 118.72460531 258.57247485 120.25 261.5 C122.92794122 266.74730741 125.41775045 272.0554444 127.8125 277.4375 C133.31506343 289.8022023 139.01973029 302.07351079 144.7043457 314.35522461 C145.28025452 315.60036835 145.28025452 315.60036835 145.86779785 316.8706665 C146.58868396 318.42910462 147.31015362 319.987273 148.03234863 321.54510498 C148.67768669 322.94017287 149.31743612 324.33784702 149.95014882 325.73868614 C150.61671832 327.1744352 151.31357628 328.59680162 152.04984927 329.99808401 C155.11888466 336.11376174 155.56016596 341.29344717 155.48101807 348.06678772 C155.48443577 349.14845181 155.48785347 350.23011591 155.49137473 351.3445577 C155.49793779 354.95141446 155.47600254 358.557519 155.45410156 362.16430664 C155.45297275 364.75673403 155.4536076 367.34916271 155.45587158 369.94158936 C155.45796346 375.51383746 155.44547162 381.08589743 155.42292023 386.65809822 C155.39033662 394.71441545 155.37998673 402.77064221 155.37496826 410.82701819 C155.36622555 423.89962287 155.33963786 436.9721274 155.30175781 450.04467773 C155.26501115 462.73933412 155.23671241 475.43396324 155.21972656 488.12866211 C155.21867567 488.91187743 155.21762477 489.69509276 155.21654204 490.50204188 C155.21132168 494.43141674 155.2062669 498.36079179 155.20129442 502.29016697 C155.15986429 534.86018421 155.08944387 567.43007868 155 600 C152.7081281 601.14593595 151.06726648 601.27390375 148.515625 601.5078125 C117.17732717 604.59035295 85.75101227 609.18389207 55 616 C53.95038086 616.23041992 52.90076172 616.46083984 51.81933594 616.69824219 C43.87483852 618.44477244 35.93800409 620.22391689 28 622 C18.76 623.98 9.52 625.96 0 628 C0 420.76 0 213.52 0 0 Z " fill="#AA0706" transform="translate(266,199)"/>
<path d="M0 0 C51.48 0 102.96 0 156 0 C156 207.57 156 415.14 156 629 C155.67 629 155.34 629 155 629 C154.67 422.75 154.34 216.5 154 4 C144.00530186 25.49677268 144.00530186 25.49677268 134.21484375 47.078125 C131.82718309 52.40304668 129.38052258 57.70031431 126.9375 63 C123.62346374 70.19298532 120.36420752 77.40809002 117.1640625 84.65234375 C116.83068375 85.40694382 116.49730499 86.16154388 116.15382385 86.93901062 C115.46927578 88.48879982 114.78475147 90.03859953 114.10025024 91.58840942 C108.69109537 103.83277631 103.16835053 115.99124914 97.3059082 128.02734375 C91.55654794 139.87724512 86.29608204 151.94263185 81 164 C75.52645359 176.41165455 69.94502626 188.75932106 64.08984375 200.99609375 C58.87232748 211.91792805 53.83907948 222.91858747 48.84713745 233.9447937 C43.86497393 244.94616405 38.80171784 255.9065136 33.66998291 266.83886719 C30.25050925 274.1248944 26.89594224 281.43078758 23.6875 288.8125 C20.8019594 295.4489346 17.55888418 301.83891614 14.05541992 308.17114258 C11.97925613 311.95991752 10.33060587 315.67120567 8.91148376 319.76834106 C8 322 8 322 6.55055237 324.54586792 C1.98941332 332.56890396 1.18406885 338.9533231 1.4140625 348.078125 C1.42679703 350.01700592 1.42679703 350.01700592 1.43978882 351.99505615 C1.46241678 355.38882446 1.52110023 358.78098798 1.5880127 362.1741333 C1.65000952 365.65362857 1.67692452 369.13338982 1.70703125 372.61328125 C1.77088068 379.4095027 1.8729298 386.20467378 2 393 C0 391 0 391 -0.24050903 388.78536987 C-0.23606781 387.86603668 -0.23162659 386.94670349 -0.22705078 385.99951172 C-0.22689972 384.95858368 -0.22674866 383.91765564 -0.22659302 382.84518433 C-0.21110916 381.1545134 -0.21110916 381.1545134 -0.1953125 379.4296875 C-0.1924826 378.27832306 -0.18965271 377.12695862 -0.18673706 375.94070435 C-0.17551408 372.25203188 -0.15040556 368.56359947 -0.125 364.875 C-0.11497294 362.37890975 -0.10584662 359.8828157 -0.09765625 357.38671875 C-0.07556784 351.25773016 -0.04206947 345.12888223 0 339 C-0.32274902 339.72179443 -0.64549805 340.44358887 -0.97802734 341.18725586 C-2.43707879 344.44034773 -3.9058932 347.68893758 -5.375 350.9375 C-5.88289062 352.07380859 -6.39078125 353.21011719 -6.9140625 354.38085938 C-7.40390625 355.46044922 -7.89375 356.54003906 -8.3984375 357.65234375 C-9.07398682 359.15269165 -9.07398682 359.15269165 -9.76318359 360.68334961 C-11 363 -11 363 -13 364 C-17.57463205 355.08074533 -21.90418517 346.08732125 -26 336.9375 C-29.19909314 329.80153244 -32.57100379 322.83935553 -36.31469727 315.97485352 C-39.98868113 309.23032852 -43.03700765 302.28473143 -46.0234375 295.21484375 C-49.76462283 286.37618161 -53.56600631 277.65336276 -57.96875 269.12304688 C-61.29752038 262.59149543 -64.13065777 255.85879745 -66.94335938 249.09179688 C-68.72133917 244.84207022 -70.58752259 240.93266866 -73 237 C-74.03001339 234.67975931 -75.02789008 232.34508992 -76 230 C-79.7983889 221.19977225 -83.66659942 212.4442182 -87.77832031 203.78515625 C-91.1668078 196.6216018 -91.1668078 196.6216018 -90.48413086 194.07763672 C-87.39129657 186.73028097 -84.0260097 179.51764006 -80.60498047 172.31884766 C-78.80483255 168.530527 -77.01449697 164.73756747 -75.22265625 160.9453125 C-74.68114426 159.80029266 -74.68114426 159.80029266 -74.12869263 158.63214111 C-70.88549482 151.7702125 -67.68654765 144.88843316 -64.5 138 C-61.09026074 130.63307656 -57.66517856 123.27420704 -54.19921875 115.93359375 C-53.87281403 115.24226349 -53.5464093 114.55093323 -53.21011353 113.83865356 C-52.54080789 112.42123672 -51.87148604 111.00382753 -51.20214844 109.58642578 C-45.0419997 96.53983551 -38.98255268 83.45180712 -33.00787354 70.3192749 C-27.61495699 58.46972728 -22.10952756 46.67684956 -16.54342651 34.90774536 C-12.08209537 25.47302465 -7.68478104 16.01667586 -3.47290039 6.46704102 C-1.09615156 1.09615156 -1.09615156 1.09615156 0 0 Z " fill="#B80C09" transform="translate(603,198)"/>
<path d="M0 0 C0.33 0 0.66 0 1 0 C1 17.49 1 34.98 1 53 C-2.44133968 48.41154709 -4.76620271 43.70901219 -7.25 38.5625 C-7.95769531 37.15000977 -7.95769531 37.15000977 -8.6796875 35.70898438 C-9.12054687 34.79568359 -9.56140625 33.88238281 -10.015625 32.94140625 C-10.42071289 32.11326416 -10.82580078 31.28512207 -11.24316406 30.43188477 C-12.69719649 25.75975026 -10.7055715 22.00290489 -8.75 17.734375 C-8.08484375 16.27644531 -8.08484375 16.27644531 -7.40625 14.7890625 C-6.71015625 13.28472656 -6.71015625 13.28472656 -6 11.75 C-5.30390625 10.22246094 -5.30390625 10.22246094 -4.59375 8.6640625 C-1.14501232 1.14501232 -1.14501232 1.14501232 0 0 Z " fill="#FBF7F7" transform="translate(603,536)"/>
<path d="M0 0 C51.15 0 102.3 0 155 0 C155.99 2.475 155.99 2.475 157 5 C156.34 5 155.68 5 155 5 C154.67 4.34 154.34 3.68 154 3 C134.49424351 2.97665793 114.98848984 2.95901438 95.48272228 2.94818783 C86.42622092 2.94302766 77.36972822 2.93599025 68.31323242 2.92456055 C60.42122448 2.91460521 52.52922281 2.90814454 44.63720876 2.90591151 C40.4569908 2.90460585 36.27679081 2.90152911 32.0965786 2.89426994 C28.16422554 2.88749635 24.2318979 2.88538579 20.29953957 2.88689232 C18.85433438 2.8866166 17.40912837 2.8846194 15.96392822 2.88079453 C13.99440623 2.87583648 12.0248707 2.87760732 10.05534363 2.87974548 C8.40026433 2.87836279 8.40026433 2.87836279 6.71174908 2.87695217 C3.90270183 2.88082179 3.90270183 2.88082179 1 4 C0.67 2.68 0.34 1.36 0 0 Z " fill="#F82B24" transform="translate(266,198)"/>
</svg>
