<?xml version="1.0" encoding="UTF-8"?>
<svg version="1.1" xmlns="http://www.w3.org/2000/svg" width="1024" height="1024">
<path d="M0 0 C20.15761189 -0.11670648 40.3151554 -0.20492587 60.47303486 -0.25906086 C69.83231703 -0.28486275 79.19138951 -0.32005102 88.55053711 -0.37719727 C96.70623495 -0.42697168 104.86178096 -0.45927657 113.01762646 -0.47044247 C117.33775604 -0.47697142 121.6574512 -0.49235688 125.97744179 -0.52865028 C130.04127453 -0.56251595 134.10449277 -0.57307231 138.16845322 -0.56553841 C139.66206766 -0.56691721 141.15570204 -0.57690639 142.64919472 -0.59602737 C144.68425868 -0.62081023 146.71965026 -0.61196455 148.75483704 -0.60127258 C149.89509496 -0.60588155 151.03535288 -0.61049051 152.21016407 -0.61523914 C155 0 155 0 156.80890179 2.37035847 C157.2019642 3.23814017 157.59502661 4.10592188 158 5 C158.42990234 5.88292725 158.85980469 6.76585449 159.30273438 7.67553711 C159.72876953 8.6166333 160.15480469 9.55772949 160.59375 10.52734375 C161.06683594 11.56697266 161.53992188 12.60660156 162.02734375 13.67773438 C162.51332031 14.75345703 162.99929688 15.82917969 163.5 16.9375 C164.46779798 19.07204648 165.43652029 21.20617416 166.40625 23.33984375 C167.08107422 24.82653564 167.08107422 24.82653564 167.76953125 26.34326172 C168.75246913 28.46554942 169.76973093 30.55209121 170.84375 32.62890625 C172 35 172 35 172 37 C172.66 37.33 173.32 37.66 174 38 C174.81153554 39.70624836 175.54082829 41.45188394 176.23046875 43.2109375 C179.51000602 51.3405286 183.24920148 59.2371647 186.97851562 67.16796875 C187.49736328 68.28042969 188.01621094 69.39289063 188.55078125 70.5390625 C189.25714722 72.04267334 189.25714722 72.04267334 189.9777832 73.57666016 C191 76 191 76 191 78 C191.66 78.33 192.32 78.66 193 79 C193.81762695 80.72924805 193.81762695 80.72924805 194.67578125 83.07421875 C196.40246337 87.56454579 198.29041798 91.95904166 200.29296875 96.33203125 C200.59812408 96.99882904 200.90327942 97.66562683 201.21768188 98.35263062 C202.20576631 100.5067774 203.19660786 102.65964348 204.1875 104.8125 C204.8960425 106.35667487 205.60437116 107.90094788 206.3125 109.4453125 C208.1679306 113.49017298 210.02631434 117.53366885 211.88568115 121.57672119 C213.68132737 125.48166405 215.47532582 129.38736375 217.26953125 133.29296875 C219.38045564 137.88763039 221.49168973 142.48214898 223.60400391 147.07617188 C231.0958093 163.37200844 238.55014405 179.684952 246 196 C248.54374403 193.45625597 249.65095134 190.58435135 251.0625 187.3359375 C251.36568146 186.64885208 251.66886292 185.96176666 251.98123169 185.25386047 C252.64249253 183.75413089 253.30167308 182.25348277 253.95904541 180.75204468 C255.75221021 176.65731002 257.56108022 172.56950681 259.3671875 168.48046875 C259.74519501 167.62344864 260.12320251 166.76642853 260.51266479 165.88343811 C264.67022708 156.46382585 268.89433468 147.07445154 273.125 137.6875 C273.89048394 135.98780274 274.65594621 134.28809572 275.42138672 132.58837891 C278.83727368 125.00535343 282.25845565 117.42474097 285.6875 109.84765625 C286.55102975 107.93912304 287.41452939 106.03057621 288.27798462 104.12200928 C288.84195345 102.87556805 289.40606037 101.6291893 289.9703064 100.38287354 C293.3096443 93.00460735 296.62101919 85.61475723 299.89453125 78.20703125 C307.05329789 62.01218837 314.28768416 45.86868229 321.90014648 29.88085938 C324.54540148 24.31519202 327.15034286 18.75576674 329.46875 13.04296875 C329.82195312 12.18396973 330.17515625 11.3249707 330.5390625 10.43994141 C331.15255102 8.92211845 331.74357389 7.3948888 332.3046875 5.85693359 C333.09375 3.91015625 333.09375 3.91015625 335 1 C341.74478855 -0.64841003 348.89689545 -0.14013986 355.79467773 -0.12939453 C357.19157965 -0.13075113 358.5884812 -0.13253253 359.98538208 -0.13470459 C363.76431879 -0.1392485 367.54322808 -0.13750179 371.32216525 -0.1343255 C375.28623447 -0.13178566 379.25030141 -0.13414401 383.21437073 -0.13571167 C389.87118957 -0.13752884 396.5279973 -0.13513915 403.18481445 -0.13037109 C410.86751396 -0.12493158 418.55018692 -0.1266907 426.23288578 -0.1321975 C432.84201675 -0.13674419 439.45113976 -0.13737149 446.0602718 -0.13475883 C450.00188543 -0.13320433 453.9434866 -0.13297952 457.88509941 -0.13629532 C461.5926741 -0.13919658 465.30021476 -0.13715708 469.0077858 -0.13140106 C471.00766707 -0.12946076 473.00755125 -0.1324083 475.00743103 -0.13552856 C476.21153625 -0.13270874 477.41564148 -0.12988892 478.65623474 -0.12698364 C479.69429984 -0.12660662 480.73236494 -0.12622959 481.80188656 -0.12584114 C485.58395807 0.02297791 489.2462568 0.51387084 493 1 C493.11285856 52.54608966 493.22431489 104.09218212 493.32835388 155.63829041 C493.33067557 156.78827748 493.33067557 156.78827748 493.33304417 157.96149663 C493.36669843 174.63537488 493.40010173 191.30925363 493.4332476 207.9831329 C493.44951109 216.16364143 493.46582986 224.34414984 493.48217773 232.5246582 C493.48380334 233.33858386 493.48542894 234.15250952 493.4871038 234.9910996 C493.53952837 261.22674567 493.59558133 287.46238242 493.65357857 313.69801672 C493.71331236 340.72807389 493.76926069 367.75813645 493.82065109 394.78821084 C493.82796266 398.63301727 493.83531615 402.47782362 493.84269524 406.32262993 C493.8448711 407.4573576 493.8448711 407.4573576 493.84709091 408.61500906 C493.87025964 420.64205413 493.89725274 432.6690875 493.92578938 444.69612089 C493.95460847 456.87834004 493.97913001 469.06056245 493.99967117 481.2427984 C494.01084781 487.80640113 494.02376188 494.36999002 494.04183006 500.93357849 C494.11449164 527.8526362 494.04168623 554.76793449 493.68000215 581.6847459 C493.64175706 584.53218207 493.60766024 587.37961902 493.57719756 590.22714884 C493.53440855 594.16825231 493.47493869 598.10900093 493.41329861 602.04985714 C493.40181068 603.23441038 493.39032276 604.41896363 493.37848672 605.63941243 C493.35869204 606.71687463 493.33889736 607.79433683 493.31850284 608.9044494 C493.30524471 609.84534122 493.29198658 610.78623303 493.27832669 611.75563672 C493 614 493 614 491 616 C488.21895981 615.51655061 485.61532399 614.91824141 482.8984375 614.18359375 C482.07746078 613.97202133 481.25648407 613.76044891 480.41062927 613.54246521 C478.64607925 613.08693379 476.88282469 612.62636088 475.12075806 612.16131592 C470.55710825 610.95828116 465.98346062 609.79459992 461.41015625 608.62890625 C460.50921738 608.39844604 459.6082785 608.16798584 458.68003845 607.93054199 C451.42224374 606.08317117 444.14719405 604.3931933 436.8125 602.875 C435.86616699 602.67575928 434.91983398 602.47651855 433.94482422 602.27124023 C429.91301886 601.45485804 426.1378664 600.74298966 422 601 C422 600.34 422 599.68 422 599 C421.12541138 598.94175049 421.12541138 598.94175049 420.2331543 598.88232422 C411.84472065 598.22765568 403.60348177 596.8903805 395.30755615 595.53192139 C372.53007509 591.81711755 349.79184528 589.00692588 326.8125 586.875 C325.88886658 586.78837097 324.96523315 586.70174194 324.01361084 586.61248779 C313.03569885 585.59030447 302.07917031 584.76457852 291.06001282 584.34786987 C290.25089951 584.31573395 289.44178619 584.28359802 288.6081543 584.25048828 C287.9090947 584.22576447 287.2100351 584.20104065 286.48979187 584.17556763 C285.66816055 584.11763031 284.84652924 584.05969299 284 584 C282.7439798 584.11243042 281.48795959 584.22486084 280.19387817 584.34069824 C276.95801349 583.89276914 276.13062158 583.16846481 274.09730625 580.54606438 C271.99777635 576.8622917 270.12546337 573.11808025 268.28979492 569.29833984 C267.56027543 567.83670592 266.82811544 566.37638736 266.09352112 564.91729736 C264.10333325 560.94551095 262.15082616 556.95622592 260.2044847 552.96281004 C258.15167439 548.76689271 256.06499914 544.58788397 253.98200989 540.40689087 C250.02927053 532.45988853 246.10766641 524.4979324 242.19673091 516.53028929 C237.7895006 507.55555297 233.34674426 498.59858254 228.90131986 489.64271998 C202.61398052 436.67122364 202.61398052 436.67122364 192.52314281 415.36467552 C188.42696125 406.7266336 184.10248688 398.20580041 179.7434082 389.69799805 C179 388 179 388 179 386 C178.34 385.67 177.68 385.34 177 385 C176.28433628 383.35377776 175.62492738 381.68276201 175 380 C174.25274307 378.37607945 173.49028919 376.75908806 172.71484375 375.1484375 C172.27052002 374.22297119 171.82619629 373.29750488 171.3684082 372.34399414 C170.8962085 371.36422607 170.42400879 370.38445801 169.9375 369.375 C168.95021585 367.31915685 167.96324193 365.26316469 166.9765625 363.20703125 C166.2326123 361.65749756 166.2326123 361.65749756 165.47363281 360.07666016 C163.23932573 355.41185933 161.02422162 350.7380426 158.8125 346.0625 C158.42634521 345.2463623 158.04019043 344.43022461 157.64233398 343.58935547 C156.7611804 341.72641459 155.88052642 339.8632374 155 338 C153.89915045 343.32688419 153.86261806 348.45982534 153.87974548 353.87081909 C153.87889106 354.86008176 153.87803663 355.84934443 153.87715632 356.86858475 C153.87551037 360.18047471 153.88100844 363.49231393 153.88647461 366.80419922 C153.8867567 369.17943826 153.88659832 371.55467739 153.8860321 373.92991638 C153.88577478 379.70834364 153.8901095 385.4867543 153.89646976 391.26517777 C153.90362429 397.99035879 153.90511545 404.71553747 153.90625793 411.44072177 C153.90844521 423.43346645 153.91509651 435.42620432 153.92456055 447.41894531 C153.93374305 459.06705695 153.94081979 470.71516673 153.94506836 482.36328125 C153.94533108 483.08157084 153.94559381 483.79986044 153.94586449 484.53991638 C153.94716955 488.14345374 153.94843325 491.7469911 153.94967639 495.35052848 C153.96003891 525.23369042 153.97772287 555.11684441 154 585 C149.65383893 586.50089713 145.65519456 587.44242308 141.0859375 588.0078125 C139.69426477 588.18662144 138.30266678 588.36601282 136.91113281 588.54589844 C136.17527954 588.63931519 135.43942627 588.73273193 134.68127441 588.82897949 C91.94789687 594.31399725 49.66939067 603.14051334 8.00585938 614.05688477 C6.95333984 614.32944092 5.90082031 614.60199707 4.81640625 614.8828125 C3.90318604 615.12402832 2.98996582 615.36524414 2.04907227 615.61376953 C1.37287842 615.74122559 0.69668457 615.86868164 0 616 C-1.90467364 614.09532636 -1.13352535 610.69229518 -1.1386652 608.16998386 C-1.14150742 607.4433811 -1.14434964 606.71677835 -1.14727798 605.96815732 C-1.15568667 603.50094164 -1.15689822 601.03377255 -1.15821838 598.56654358 C-1.16278067 596.79040029 -1.16778019 595.01425809 -1.17318195 593.23811716 C-1.1868307 588.32717425 -1.19420218 583.4162383 -1.20060861 578.50528133 C-1.20859214 573.21054381 -1.22230517 567.91582085 -1.23532104 562.62109375 C-1.26003925 552.19352498 -1.2794058 541.76595257 -1.29707379 531.33836973 C-1.31810976 519.05221719 -1.3445662 506.76607803 -1.37124526 494.47993665 C-1.41909638 472.3641544 -1.46224425 450.24836528 -1.50268555 428.13256836 C-1.54128341 407.02644177 -1.58270233 385.92032313 -1.62768555 364.81420898 C-1.63317991 362.23166041 -1.63867423 359.64911183 -1.6441685 357.06656325 C-1.65238913 353.20472456 -1.66061185 349.34288587 -1.66883991 345.48104719 C-1.77265322 296.71221715 -1.86307389 247.9433798 -1.93619728 199.17449379 C-1.94149156 195.64975631 -1.94678852 192.12501884 -1.95209123 188.60028137 C-1.95557872 186.28167822 -1.95905883 183.96307505 -1.96253143 181.64447187 C-1.988645 164.28966047 -2.02099845 146.93486856 -2.05677823 129.58007465 C-2.08960256 113.58879085 -2.11551099 97.59751001 -2.13298529 81.60620183 C-2.14319901 72.42494415 -2.15875476 63.2437338 -2.18219937 54.06250013 C-2.19708227 48.01759421 -2.20480284 41.97270803 -2.20637779 35.92778401 C-2.20745913 32.51863904 -2.21169345 29.10957924 -2.22476268 25.70045733 C-2.23702778 22.07123222 -2.23716335 18.44221242 -2.23399353 14.81297302 C-2.24049803 13.76072747 -2.24700253 12.70848191 -2.25370413 11.62435013 C-2.25032127 10.66772994 -2.2469384 9.71110974 -2.24345303 8.72550106 C-2.24472838 7.90273928 -2.24600373 7.07997749 -2.24731773 6.23228353 C-1.97423648 3.76745913 -1.23290703 2.13415551 0 0 Z M153 334 C154 336 154 336 154 336 Z M337 337 C335.12075624 341.03046566 333.27617436 345.07588521 331.4375 349.125 C330.90447266 350.26710938 330.37144531 351.40921875 329.82226562 352.5859375 C329.32275391 353.69453125 328.82324219 354.803125 328.30859375 355.9453125 C327.84251709 356.96125488 327.37644043 357.97719727 326.89624023 359.02392578 C325.28696765 364.36771027 327.01032118 368.50322279 329.28515625 373.3984375 C329.73310547 374.37167969 330.18105469 375.34492187 330.64257812 376.34765625 C331.34543945 377.84619141 331.34543945 377.84619141 332.0625 379.375 C332.53494141 380.39722656 333.00738281 381.41945313 333.49414062 382.47265625 C334.65632219 384.98484671 335.82509244 387.49374253 337 390 C337.33 390 337.66 390 338 390 C338.02687279 388.18757948 338.04633715 386.37504767 338.0625 384.5625 C338.07410156 383.55316406 338.08570313 382.54382813 338.09765625 381.50390625 C338.28612676 379.05978933 338.28612676 379.05978933 337 378 C337.33 378 337.66 378 338 378 C338 376.865625 338 375.73125 338 374.5625 C338 371.86399422 338.0143226 369.19793415 338.0625 366.5 C338.40833642 363.17688003 338.40833642 363.17688003 337 362 C337.33 362 337.66 362 338 362 C338 353.75 338 345.5 338 337 C337.67 337 337.34 337 337 337 Z " fill="#F91317" transform="translate(266,195)"/>
<path d="M0 0 C1.85472427 -0.00422974 1.85472427 -0.00422974 3.74691772 -0.00854492 C5.12484756 -0.00660038 6.50277725 -0.00455219 7.88070679 -0.00241089 C9.32613163 -0.00376537 10.77155614 -0.00554558 12.21697998 -0.00772095 C16.15116609 -0.01229208 20.08532607 -0.01050638 24.01951265 -0.00734186 C28.13709364 -0.00481371 32.25467235 -0.00715734 36.37225342 -0.00872803 C43.29434613 -0.01054962 50.21642819 -0.00814497 57.13851929 -0.00338745 C65.13069442 0.00204227 73.12284399 0.00030188 81.11501849 -0.00521386 C87.97882353 -0.00976069 94.84262091 -0.01038746 101.70642698 -0.00777519 C105.80461061 -0.00621939 109.90278226 -0.00599926 114.00096512 -0.00931168 C117.86031658 -0.01221273 121.71963535 -0.01017378 125.57898331 -0.00441742 C126.99144944 -0.00310122 128.40391835 -0.00346445 129.81638336 -0.00568008 C131.75340167 -0.00843696 133.69042603 -0.00435777 135.62744141 0 C136.70887232 0.00037703 137.79030323 0.00075405 138.90450478 0.0011425 C142.72045685 0.14709369 146.40774564 0.63581351 150.19467163 1.12698364 C150.30753019 52.6730733 150.41898652 104.21916577 150.52302551 155.76527405 C150.5253472 156.91526113 150.5253472 156.91526113 150.5277158 158.08848027 C150.56137006 174.76235852 150.59477336 191.43623727 150.62791923 208.11011655 C150.64418272 216.29062507 150.66050149 224.47113349 150.67684937 232.65164185 C150.67928777 233.87253034 150.67928777 233.87253034 150.68177543 235.11808324 C150.7342 261.35372931 150.79025296 287.58936606 150.8482502 313.82500036 C150.90798399 340.85505754 150.96393232 367.8851201 151.01532272 394.91519448 C151.0226343 398.76000092 151.02998779 402.60480727 151.03736687 406.44961357 C151.03881744 407.20609869 151.04026801 407.9625838 151.04176254 408.74199271 C151.06493127 420.76903777 151.09192437 432.79607114 151.12046101 444.82310454 C151.1492801 457.00532368 151.17380164 469.18754609 151.1943428 481.36978204 C151.20551944 487.93338477 151.21843351 494.49697366 151.23650169 501.06056213 C151.30916327 527.97961984 151.23635786 554.89491814 150.87467378 581.81172954 C150.83642869 584.65916572 150.80233187 587.50660266 150.77186919 590.35413248 C150.72908018 594.29523595 150.66961033 598.23598457 150.60797024 602.17684078 C150.59648231 603.36139403 150.58499439 604.54594727 150.57315835 605.76639607 C150.55336367 606.84385827 150.53356899 607.92132047 150.51317447 609.03143305 C150.49991634 609.97232486 150.48665821 610.91321667 150.47299832 611.88262036 C150.19467163 614.12698364 150.19467163 614.12698364 148.19467163 616.12698364 C145.25230057 615.60841955 142.4795412 614.97475841 139.60092163 614.20510864 C138.30897888 613.87503815 138.30897888 613.87503815 136.99093628 613.53829956 C134.2225458 612.82885183 131.4586193 612.103529 128.69467163 611.37698364 C125.95857377 610.66783963 123.2216477 609.96204127 120.48410034 609.2585144 C118.78003132 608.8194822 117.07691386 608.37673269 115.37496948 607.92953491 C114.18454041 607.61976715 114.18454041 607.61976715 112.97006226 607.30374146 C112.19175552 607.09880569 111.41344879 606.89386993 110.61155701 606.682724 C108.1642977 606.08277027 108.1642977 606.08277027 105.51301575 605.75422668 C98.76971217 604.78962959 98.76971217 604.78962959 95.76522827 601.3274231 C95.21729614 600.14366089 94.66936401 598.95989868 94.10482788 597.74026489 C93.7939624 597.09584442 93.48309692 596.45142395 93.16281128 595.78747559 C92.15902288 593.68611936 91.20880135 591.56490013 90.25717163 589.43948364 C89.56327123 587.96300541 88.86588635 586.48816005 88.16513062 585.0149231 C86.77367821 582.07566376 85.40232942 579.12845488 84.05014038 576.17092896 C82.09633654 571.89847526 80.06699003 567.66484774 78.02206421 563.43533325 C76.71761785 560.73252845 75.42960136 558.02234022 74.14389038 555.31057739 C70.49843566 547.64378219 66.78224661 540.0114288 63.06967163 532.37698364 C62.7085025 531.63411102 62.34733337 530.8912384 61.97521973 530.12585449 C60.12266298 526.31548967 58.26964703 522.50534847 56.41635132 518.69534302 C53.19123422 512.06454459 49.97047583 505.43162975 46.7494812 498.79882812 C45.69464898 496.626937 44.63952892 494.45518595 43.58432007 492.28347778 C40.33748722 485.60084768 37.09227423 478.91744757 33.85327148 472.23101807 C26.98617522 458.05524233 20.11309224 443.88698904 13.03109741 429.81692505 C9.68009747 423.14206399 6.41993773 416.42594747 3.19467163 409.68948364 C2.50848755 408.25814087 2.50848755 408.25814087 1.80844116 406.79788208 C0.59199328 404.24630848 -0.60719913 401.68719105 -1.80532837 399.12698364 C-2.1254187 398.47769897 -2.44550903 397.82841431 -2.77529907 397.15945435 C-4.72214177 393.03750264 -5.13302946 389.72265233 -4.99282837 385.18948364 C-4.96575806 384.04608521 -4.93868774 382.90268677 -4.91079712 381.72463989 C-4.87599243 380.86741333 -4.84118774 380.01018677 -4.80532837 379.12698364 C-5.46532837 379.12698364 -6.12532837 379.12698364 -6.80532837 379.12698364 C-6.47532837 377.80698364 -6.14532837 376.48698364 -5.80532837 375.12698364 C-6.13532837 375.12698364 -6.46532837 375.12698364 -6.80532837 375.12698364 C-6.80532837 373.14698364 -6.80532837 371.16698364 -6.80532837 369.12698364 C-6.47532837 369.12698364 -6.14532837 369.12698364 -5.80532837 369.12698364 C-5.47532837 367.14698364 -5.14532837 365.16698364 -4.80532837 363.12698364 C-5.46532837 363.12698364 -6.12532837 363.12698364 -6.80532837 363.12698364 C-6.47532837 362.46698364 -6.14532837 361.80698364 -5.80532837 361.12698364 C-5.72132308 359.532509 -5.6980537 357.9345782 -5.70767212 356.33792114 C-5.71089478 355.39690552 -5.71411743 354.45588989 -5.71743774 353.48635864 C-5.72581665 352.50151489 -5.73419556 351.51667114 -5.74282837 350.50198364 C-5.74734009 349.50940552 -5.75185181 348.51682739 -5.75650024 347.49417114 C-5.76830692 345.03838204 -5.78477437 342.5827126 -5.80532837 340.12698364 C-7.26944342 343.16589976 -8.72556426 346.20858143 -10.18032837 349.25198364 C-10.59282837 350.10792114 -11.00532837 350.96385864 -11.43032837 351.84573364 C-13.51216045 356.21086543 -15.41857243 360.4790654 -16.80532837 365.12698364 C-19.98493614 363.53717976 -20.61883665 360.25905751 -21.92251587 357.11135864 C-24.39630967 351.30029776 -26.97408611 345.56548729 -29.75064087 339.89260864 C-30.08658768 339.20581024 -30.42253448 338.51901184 -30.7686615 337.81140137 C-31.46288722 336.39560135 -32.15807427 334.98027234 -32.85418701 333.56539917 C-38.49047023 322.10358736 -44.03092539 310.60658595 -49.36782837 299.00198364 C-54.0554271 288.8133456 -58.88985876 278.70709481 -63.80532837 268.62698364 C-69.37415242 257.20603756 -74.89808867 245.76961518 -80.10464478 234.17752075 C-82.68907051 228.46213757 -85.41029377 222.97585119 -88.59439087 217.56838989 C-97.87042282 201.42431417 -97.87042282 201.42431417 -96.03970337 193.99026489 C-94.34592745 189.42903437 -91.95903114 185.30498324 -89.48794556 181.12600708 C-86.59388754 175.96776437 -84.30724669 170.52926858 -81.93392944 165.11801147 C-80.45435351 161.76509403 -78.93251052 158.43147188 -77.41470337 155.09573364 C-74.02119343 147.61671674 -70.65968079 140.12365115 -67.30532837 132.62698364 C-64.02926511 125.30784429 -60.74827119 117.99113671 -57.44204712 110.68557739 C-57.15999924 110.0622905 -56.87795135 109.4390036 -56.58735657 108.79682922 C-55.43218474 106.24434122 -54.27693312 103.69188951 -53.12121582 101.13964844 C-49.6798945 93.53716385 -46.2640955 85.9241886 -42.89126587 78.29104614 C-35.73978828 62.11102863 -28.48208104 45.99890462 -20.91616821 30.00784302 C-17.15833945 22.05980353 -13.48268429 14.08396958 -10.06118774 5.98391724 C-7.57183685 0.20009322 -6.1278312 0.00214086 0 0 Z " fill="#B20006" transform="translate(608.8053283691406,194.87301635742188)"/>
<path d="M0 0 C2.71481754 3.61975671 4.43668437 6.96322766 6.1875 11.0625 C9.94151378 19.68211283 13.83861075 28.23170833 17.762146 36.7749939 C23.37370734 48.99609342 28.93314791 61.23346207 34.28637695 73.57055664 C37.71414447 81.44828455 41.34150907 89.22769865 45 97 C45.28642365 97.60884033 45.57284729 98.21768066 45.86795044 98.8449707 C47.01333187 101.27940196 48.15919098 103.71360809 49.30528259 106.14770508 C55.46139942 119.22463796 61.54248119 132.33133508 67.5 145.5 C72.4651787 156.47414569 77.4999483 167.41205798 82.625 178.3125 C82.93560364 178.97318481 83.24620728 179.63386963 83.56622314 180.3145752 C84.80371994 182.94640389 86.04144118 185.57812686 87.2795105 188.20968628 C90.4956486 195.04826239 93.68999531 201.89687456 96.875 208.75 C97.41036377 209.90185791 97.94572754 211.05371582 98.49731445 212.24047852 C101.65599371 219.0537305 104.75594802 225.8904202 107.8125 232.75 C110.33340447 238.40266507 112.94158094 243.98454885 115.75 249.5 C119.90337317 257.6604272 123.72787123 265.96589215 127.56689453 274.27783203 C132.36859111 284.66774602 137.23662576 295.02560854 142.125 305.375 C142.49648163 306.16225464 142.86796326 306.94950928 143.2507019 307.76062012 C144.31474815 310.01528292 145.37982374 312.26945609 146.4453125 314.5234375 C146.76042282 315.1910611 147.07553314 315.85868469 147.40019226 316.54653931 C148.78883306 319.48031782 150.20094627 322.39447938 151.67431641 325.28686523 C153.05907339 328.12089919 153.71383853 330.58727602 154.25 333.6875 C154.42015625 334.61949219 154.5903125 335.55148437 154.765625 336.51171875 C155 339 155 339 154 342 C153.91093398 343.37537287 153.8762362 344.75467628 153.87695217 346.1329298 C153.87496112 346.97840128 153.87297007 347.82387276 153.87091869 348.69496459 C153.87528795 350.08843461 153.87528795 350.08843461 153.87974548 351.51005554 C153.87889106 352.49675494 153.87803663 353.48345433 153.87715632 354.5000537 C153.87550327 357.82126169 153.88102007 361.14241968 153.88647461 364.46362305 C153.88675654 366.83841958 153.88659862 369.21321621 153.8860321 371.5880127 C153.88577428 377.37687758 153.89011898 383.16572596 153.89646976 388.95458706 C153.90361191 395.68955627 153.90511437 402.42452311 153.90625793 409.15949557 C153.90844735 421.17054285 153.91510445 433.18158335 153.92456055 445.19262695 C153.93373751 456.8612464 153.94081696 468.529864 153.94506836 480.19848633 C153.94533108 480.91756409 153.94559381 481.63664186 153.94586449 482.37750985 C153.94716951 485.98485911 153.94843323 489.59220838 153.94967639 493.19955766 C153.96004557 523.1330432 153.97773515 553.06652081 154 583 C149.65383893 584.50089713 145.65519456 585.44242308 141.0859375 586.0078125 C139.69426477 586.18662144 138.30266678 586.36601282 136.91113281 586.54589844 C136.17527954 586.63931519 135.43942627 586.73273193 134.68127441 586.82897949 C94.05616146 592.04339218 53.26287697 599.71215522 13.77539062 610.68041992 C8.80730448 612.01047288 5.44991814 612 0 612 C0 410.04 0 208.08 0 0 Z " fill="#C9020B" transform="translate(266,197)"/>
<path d="M0 0 C1.85472427 -0.00422974 1.85472427 -0.00422974 3.74691772 -0.00854492 C5.12484756 -0.00660038 6.50277725 -0.00455219 7.88070679 -0.00241089 C9.32613163 -0.00376537 10.77155614 -0.00554558 12.21697998 -0.00772095 C16.15116609 -0.01229208 20.08532607 -0.01050638 24.01951265 -0.00734186 C28.13709364 -0.00481371 32.25467235 -0.00715734 36.37225342 -0.00872803 C43.29434613 -0.01054962 50.21642819 -0.00814497 57.13851929 -0.00338745 C65.13069442 0.00204227 73.12284399 0.00030188 81.11501849 -0.00521386 C87.97882353 -0.00976069 94.84262091 -0.01038746 101.70642698 -0.00777519 C105.80461061 -0.00621939 109.90278226 -0.00599926 114.00096512 -0.00931168 C117.86031658 -0.01221273 121.71963535 -0.01017378 125.57898331 -0.00441742 C126.99144944 -0.00310122 128.40391835 -0.00346445 129.81638336 -0.00568008 C131.75340167 -0.00843696 133.69042603 -0.00435777 135.62744141 0 C136.70887232 0.00037703 137.79030323 0.00075405 138.90450478 0.0011425 C142.72045685 0.14709369 146.40774564 0.63581351 150.19467163 1.12698364 C150.30753019 52.6730733 150.41898652 104.21916577 150.52302551 155.76527405 C150.5253472 156.91526113 150.5253472 156.91526113 150.5277158 158.08848027 C150.56137006 174.76235852 150.59477336 191.43623727 150.62791923 208.11011655 C150.64418272 216.29062507 150.66050149 224.47113349 150.67684937 232.65164185 C150.67928777 233.87253034 150.67928777 233.87253034 150.68177543 235.11808324 C150.7342 261.35372931 150.79025296 287.58936606 150.8482502 313.82500036 C150.90798399 340.85505754 150.96393232 367.8851201 151.01532272 394.91519448 C151.0226343 398.76000092 151.02998779 402.60480727 151.03736687 406.44961357 C151.03881744 407.20609869 151.04026801 407.9625838 151.04176254 408.74199271 C151.06493127 420.76903777 151.09192437 432.79607114 151.12046101 444.82310454 C151.1492801 457.00532368 151.17380164 469.18754609 151.1943428 481.36978204 C151.20551944 487.93338477 151.21843351 494.49697366 151.23650169 501.06056213 C151.33857836 538.76109483 150.90602329 576.43440052 150.19467163 614.12698364 C149.86467163 614.12698364 149.53467163 614.12698364 149.19467163 614.12698364 C149.1933151 612.8521931 149.19195857 611.57740256 149.19056094 610.263982 C149.13067107 554.10582618 149.06832049 497.94767346 148.99334717 441.78953552 C148.99221354 440.93987796 148.99107992 440.09022039 148.98991195 439.21481562 C148.96526287 420.75130001 148.9401701 402.28778503 148.91462002 383.82427065 C148.90209371 374.77030856 148.8896655 365.71634633 148.87728882 356.66238403 C148.87543883 355.31088723 148.87543883 355.31088723 148.87355147 353.93208747 C148.83359219 324.70647062 148.80011507 295.48085071 148.76998472 266.25522222 C148.7389984 236.2324236 148.70150193 206.20964002 148.65576551 176.18686008 C148.64931472 171.95036198 148.64293867 167.71386377 148.63660812 163.47736549 C148.63535982 162.64352802 148.63411151 161.80969055 148.63282538 160.95058528 C148.61289022 147.50579357 148.59985693 134.06100353 148.58937836 120.61620149 C148.57870804 107.11315409 148.56082922 93.61013169 148.53550459 80.10710367 C148.52066385 72.07597367 148.51143762 64.04488196 148.5101048 56.01373812 C148.50850492 50.02998397 148.49659114 44.04629859 148.48053722 38.06256375 C148.47565764 35.63184455 148.47420539 33.20111574 148.47639282 30.77039262 C148.47886585 27.4846327 148.46923765 24.19913186 148.45638466 20.9134016 C148.46003434 19.95386234 148.46368402 18.99432308 148.4674443 18.00570688 C148.45855229 16.6990682 148.45855229 16.6990682 148.44948065 15.36603278 C148.44854477 14.61405019 148.44760889 13.8620676 148.44664464 13.08729766 C148.30078284 10.80504507 148.30078284 10.80504507 146.19467163 8.12698364 C138.13720475 24.70329087 130.46281776 41.43801875 122.8666687 58.22880554 C120.18183917 64.16163671 117.47464111 70.08403074 114.75717163 76.00198364 C113.88083583 77.91212442 113.00453481 79.82228116 112.12826538 81.73245239 C111.66790894 82.73582642 111.20755249 83.73920044 110.73324585 84.77297974 C102.13292078 103.5211971 93.54956804 122.274771 85.13973999 141.10940552 C80.13689288 152.29650983 75.03975677 163.43982947 69.92514038 174.57620239 C66.65386254 181.70536443 63.41956202 188.84850898 60.24545288 196.02151489 C55.80811785 206.04568316 51.21821571 215.99771683 46.62191772 225.94973755 C42.76718243 234.30020057 38.94474966 242.66075942 35.23373413 251.07620239 C31.0198815 260.614126 26.56139948 270.02993247 22.06967163 279.43948364 C21.24029822 281.18113092 20.41103542 282.92283087 19.58187866 284.6645813 C2.54684987 320.42262717 2.54684987 320.42262717 -2.80532837 331.12698364 C-2.92538384 333.06669742 -2.98266181 335.0104198 -3.01065063 336.9536438 C-3.03059586 338.17475861 -3.05054108 339.39587341 -3.0710907 340.6539917 C-3.08807493 341.99134188 -3.10495374 343.3286934 -3.12173462 344.66604614 C-3.14230439 346.03082917 -3.16330087 347.39560582 -3.18470764 348.76037598 C-3.23992596 352.35406337 -3.28933624 355.94780824 -3.33755493 359.54159546 C-3.38777174 363.20813111 -3.44345686 366.8745832 -3.49868774 370.54104614 C-3.60626637 377.73628791 -3.70771194 384.9315991 -3.80532837 392.12698364 C-4.13532837 392.12698364 -4.46532837 392.12698364 -4.80532837 392.12698364 C-4.80532837 387.83698364 -4.80532837 383.54698364 -4.80532837 379.12698364 C-5.46532837 379.12698364 -6.12532837 379.12698364 -6.80532837 379.12698364 C-6.47532837 377.80698364 -6.14532837 376.48698364 -5.80532837 375.12698364 C-6.13532837 375.12698364 -6.46532837 375.12698364 -6.80532837 375.12698364 C-6.80532837 373.14698364 -6.80532837 371.16698364 -6.80532837 369.12698364 C-6.47532837 369.12698364 -6.14532837 369.12698364 -5.80532837 369.12698364 C-5.47532837 367.14698364 -5.14532837 365.16698364 -4.80532837 363.12698364 C-5.46532837 363.12698364 -6.12532837 363.12698364 -6.80532837 363.12698364 C-6.47532837 362.46698364 -6.14532837 361.80698364 -5.80532837 361.12698364 C-5.72132308 359.532509 -5.6980537 357.9345782 -5.70767212 356.33792114 C-5.71089478 355.39690552 -5.71411743 354.45588989 -5.71743774 353.48635864 C-5.72581665 352.50151489 -5.73419556 351.51667114 -5.74282837 350.50198364 C-5.74734009 349.50940552 -5.75185181 348.51682739 -5.75650024 347.49417114 C-5.76830692 345.03838204 -5.78477437 342.5827126 -5.80532837 340.12698364 C-7.26944342 343.16589976 -8.72556426 346.20858143 -10.18032837 349.25198364 C-10.59282837 350.10792114 -11.00532837 350.96385864 -11.43032837 351.84573364 C-13.51216045 356.21086543 -15.41857243 360.4790654 -16.80532837 365.12698364 C-19.98493614 363.53717976 -20.61883665 360.25905751 -21.92251587 357.11135864 C-24.39630967 351.30029776 -26.97408611 345.56548729 -29.75064087 339.89260864 C-30.08658768 339.20581024 -30.42253448 338.51901184 -30.7686615 337.81140137 C-31.46288722 336.39560135 -32.15807427 334.98027234 -32.85418701 333.56539917 C-38.49047023 322.10358736 -44.03092539 310.60658595 -49.36782837 299.00198364 C-54.0554271 288.8133456 -58.88985876 278.70709481 -63.80532837 268.62698364 C-69.37415242 257.20603756 -74.89808867 245.76961518 -80.10464478 234.17752075 C-82.68907051 228.46213757 -85.41029377 222.97585119 -88.59439087 217.56838989 C-97.87042282 201.42431417 -97.87042282 201.42431417 -96.03970337 193.99026489 C-94.34592745 189.42903437 -91.95903114 185.30498324 -89.48794556 181.12600708 C-86.59388754 175.96776437 -84.30724669 170.52926858 -81.93392944 165.11801147 C-80.45435351 161.76509403 -78.93251052 158.43147188 -77.41470337 155.09573364 C-74.02119343 147.61671674 -70.65968079 140.12365115 -67.30532837 132.62698364 C-64.02926511 125.30784429 -60.74827119 117.99113671 -57.44204712 110.68557739 C-57.15999924 110.0622905 -56.87795135 109.4390036 -56.58735657 108.79682922 C-55.43218474 106.24434122 -54.27693312 103.69188951 -53.12121582 101.13964844 C-49.6798945 93.53716385 -46.2640955 85.9241886 -42.89126587 78.29104614 C-35.73978828 62.11102863 -28.48208104 45.99890462 -20.91616821 30.00784302 C-17.15833945 22.05980353 -13.48268429 14.08396958 -10.06118774 5.98391724 C-7.57183685 0.20009322 -6.1278312 0.00214086 0 0 Z " fill="#C8020B" transform="translate(608.8053283691406,194.87301635742188)"/>
<path d="M0 0 C1.31223496 3.93670488 0.24296256 6.12488144 -1 10 C-1.66 10 -2.32 10 -3 10 C-3.10570312 10.70382813 -3.21140625 11.40765625 -3.3203125 12.1328125 C-4.08826875 15.3723521 -5.33529084 17.92580584 -6.875 20.875 C-9.09112629 25.19670946 -11.12547758 29.51744638 -13 34 C-13.82879693 35.83538857 -14.66254977 37.66854357 -15.5 39.5 C-16.86465014 42.48923364 -18.20547355 45.47943828 -19.5 48.5 C-22.47085418 55.4319931 -25.62749607 62.25499214 -29 69 C-29.70548915 70.66751981 -30.41082445 72.33510677 -31.11328125 74.00390625 C-33.24907947 78.81180444 -35.68571834 83.49422424 -38.12890625 88.15234375 C-39.11779344 90.02618833 -39.11779344 90.02618833 -39.375 92.375 C-40.1919723 95.80628364 -42.02650612 98.10143086 -44 101 C-44.3721042 102.32303717 -44.70630173 103.65737935 -45 105 C-45.98731469 107.00629253 -46.98955258 109.00525791 -48 111 C-53.96309102 122.64443288 -53.96309102 122.64443288 -58 135 C-58.66 135 -59.32 135 -60 135 C-60.17015625 135.53367187 -60.3403125 136.06734375 -60.515625 136.6171875 C-65.56506063 152.14151618 -65.56506063 152.14151618 -68.53515625 155.98828125 C-70.19708227 158.27065966 -70.75353254 160.14762665 -71.4375 162.875 C-72.64724154 167.21096835 -74.35231347 170.32740255 -77 174 C-77.72159424 175.64363134 -78.39351421 177.31050386 -79 179 C-79.309375 179.7425 -79.61875 180.485 -79.9375 181.25 C-80.56009666 182.86142665 -81.14875655 184.48813525 -81.65234375 186.140625 C-83.1405037 190.99926615 -84.79485318 194.0178479 -88 198 C-89.07254158 200.40456903 -89.99694336 202.84515412 -90.92578125 205.30859375 C-92.01882781 208.04717223 -93.27675866 210.62863927 -94.625 213.25 C-95.95646514 215.8483744 -97.07464055 218.22392164 -98 221 C-99.23891636 224.71674908 -100.9812628 228.06140046 -102.78125 231.53515625 C-104.024 233.96554368 -104.024 233.96554368 -104.96875 236.43359375 C-106.15415854 239.38364454 -107.56574022 242.16192462 -109 245 C-110.51532213 248.13857521 -112.00770619 251.28792281 -113.5 254.4375 C-114.08587891 255.66823242 -114.08587891 255.66823242 -114.68359375 256.92382812 C-116.37777983 260.49759101 -118.05125927 264.06935563 -119.5859375 267.71484375 C-121.41620867 271.96693782 -123.55384012 276.0309873 -125.6953125 280.1328125 C-127.09322732 282.89693253 -127.09322732 282.89693253 -127.4921875 285.6796875 C-128.09002637 288.41135126 -128.98512453 289.14285468 -131 291 C-131.96670234 292.78718178 -131.96670234 292.78718178 -132.75 294.8125 C-134.23540424 298.36128679 -135.91244381 301.73672751 -137.72875977 305.12792969 C-140.6863314 310.7101861 -142.67952384 315.52667339 -142.890625 321.93359375 C-143.0298049 324.56309974 -143.82868238 326.65736476 -145 329 C-144.34 329.33 -143.68 329.66 -143 330 C-143.16081055 330.6305127 -143.32162109 331.26102539 -143.48730469 331.91064453 C-144.18156574 336.09406325 -144.18246361 340.19552325 -144.203125 344.4296875 C-144.20882507 345.33824493 -144.21452515 346.24680237 -144.22039795 347.18289185 C-144.22982274 349.10092004 -144.23637189 351.01896425 -144.24023438 352.93701172 C-144.24994362 355.85803665 -144.28099232 358.77835861 -144.3125 361.69921875 C-144.31903057 363.56770418 -144.32428083 365.43619461 -144.328125 367.3046875 C-144.3404718 368.17157196 -144.3528186 369.03845642 -144.36553955 369.93161011 C-144.34247662 376.26547938 -143.31349994 380.97465392 -139.375 386.125 C-138 388 -138 388 -137.5859375 390.29296875 C-136.92679554 393.33820463 -135.79688946 395.48841711 -134.25 398.1875 C-130.46054927 404.94142535 -126.94328185 411.76216479 -123.875 418.875 C-122.81136801 421.33951316 -121.91021927 423.11543236 -120.25 425.25 C-118.59383331 427.56863336 -118.76824962 429.21899547 -119 432 C-118.34 432 -117.68 432 -117 432 C-115.23537317 435.08809695 -115 436.23312136 -115 440 C-114.34 440.33 -113.68 440.66 -113 441 C-111.9296875 442.99609375 -111.9296875 442.99609375 -110.875 445.4375 C-110.52179687 446.24058594 -110.16859375 447.04367187 -109.8046875 447.87109375 C-109 450 -109 450 -109 452 C-108.34 452.33 -107.68 452.66 -107 453 C-105.89270545 454.92198795 -104.86126017 456.88818603 -103.875 458.875 C-103.33617187 459.94492187 -102.79734375 461.01484375 -102.2421875 462.1171875 C-101 465 -101 465 -101 468 C-100.34 468 -99.68 468 -99 468 C-98.505 471.465 -98.505 471.465 -98 475 C-97.34 475 -96.68 475 -96 475 C-95.01 478.96 -95.01 478.96 -94 483 C-96.58300923 480.6820594 -97.99770854 478.36707631 -99.53125 475.265625 C-100.00618896 474.31123535 -100.48112793 473.3568457 -100.97045898 472.37353516 C-101.47520752 471.34276855 -101.97995605 470.31200195 -102.5 469.25 C-103.03117432 468.17669434 -103.56234863 467.10338867 -104.10961914 465.99755859 C-108.07292847 457.96266244 -111.94136351 449.8835517 -115.78320312 441.79003906 C-119.26345641 434.47952129 -122.86222663 427.2332595 -126.5 420 C-130.80670537 411.43211875 -135.04790604 402.83748043 -139.1875 394.1875 C-139.64511719 393.23294922 -140.10273437 392.27839844 -140.57421875 391.29492188 C-142.96247806 386.2817617 -142.96247806 386.2817617 -144 384 C-144.34264389 383.25138702 -144.68528778 382.50277405 -145.03831482 381.73147583 C-146.106318 378.69802484 -146.31903517 376.24102275 -146.41748047 373.0300293 C-146.45606171 371.84656418 -146.49464294 370.66309906 -146.53439331 369.44377136 C-146.65149373 363.97084804 -146.74927069 358.49849856 -146.81005859 353.0246582 C-146.84522804 350.16533404 -146.91404957 347.3101313 -147.01513672 344.45239258 C-147.67248742 325.4118036 -145.58917114 311.09951723 -135.44293213 294.42385864 C-133.51459346 291.18460694 -131.96003006 287.87979484 -130.40625 284.4453125 C-129.91979004 283.39239014 -129.43333008 282.33946777 -128.93212891 281.25463867 C-128.45952637 280.22185791 -127.98692383 279.18907715 -127.5 278.125 C-126.96938965 276.97427002 -126.4387793 275.82354004 -125.89208984 274.63793945 C-124.79981349 272.26832364 -123.70913256 269.89797171 -122.62011719 267.52685547 C-120.4736061 262.85408586 -118.3179126 258.18557805 -116.16210938 253.51708984 C-115.18082363 251.39149026 -114.200279 249.26554827 -113.22070312 247.13916016 C-110.70732627 241.68484555 -108.17962977 236.23747855 -105.63671875 230.796875 C-101.79092542 222.56558807 -97.982291 214.3174111 -94.1875 206.0625 C-93.82517273 205.27442963 -93.46284546 204.48635925 -93.08953857 203.67440796 C-85.45559166 187.06074523 -77.95428222 170.38847794 -70.46463013 153.70941162 C-58.46765655 126.99916857 -46.35058605 100.34547043 -34.10377502 73.74893188 C-30.26193936 65.40224243 -26.44306986 57.04508032 -22.625 48.6875 C-21.95778894 47.22752752 -21.29055296 45.76756642 -20.62329102 44.30761719 C-18.18164531 38.96503605 -15.74002177 33.62244587 -13.30175781 28.27832031 C-11.78567631 24.95584384 -10.26798726 21.63410608 -8.75 18.3125 C-8.32025879 17.36914795 -7.89051758 16.4257959 -7.44775391 15.45385742 C-5.06646546 10.24712471 -2.59141735 5.10556767 0 0 Z " fill="#720000" transform="translate(751,210)"/>
<path d="M0 0 C2.84028591 3.42497126 4.62663038 7.19636381 6.44921875 11.21875 C6.7790123 11.93690887 7.10880585 12.65506775 7.44859314 13.39498901 C8.53322041 15.76107811 9.61052544 18.13041895 10.6875 20.5 C11.44363952 22.15455477 12.19999021 23.80901305 12.95654297 25.46337891 C18.91617205 38.5194422 24.76765619 51.62363371 30.55737305 64.75585938 C34.58933769 73.89352445 38.74041443 82.96631062 43 92 C43.57122229 93.21365926 44.14234868 94.42736365 44.71337891 95.64111328 C45.57738643 97.47715611 46.44148679 99.31315496 47.30587769 101.14901733 C53.46191941 114.22545372 59.54267998 127.33177449 65.5 140.5 C70.4651787 151.47414569 75.4999483 162.41205798 80.625 173.3125 C80.93560364 173.97318481 81.24620728 174.63386963 81.56622314 175.3145752 C82.80371994 177.94640389 84.04144118 180.57812686 85.2795105 183.20968628 C88.4956486 190.04826239 91.68999531 196.89687456 94.875 203.75 C95.41036377 204.90185791 95.94572754 206.05371582 96.49731445 207.24047852 C99.65599371 214.0537305 102.75594802 220.8904202 105.8125 227.75 C108.33340447 233.40266507 110.94158094 238.98454885 113.75 244.5 C117.90337317 252.6604272 121.72787123 260.96589215 125.56689453 269.27783203 C130.36859111 279.66774602 135.23662576 290.02560854 140.125 300.375 C140.49648163 301.16225464 140.86796326 301.94950928 141.2507019 302.76062012 C142.31474815 305.01528292 143.37982374 307.26945609 144.4453125 309.5234375 C144.76042282 310.1910611 145.07553314 310.85868469 145.40019226 311.54653931 C146.78883306 314.48031782 148.20094627 317.39447938 149.67431641 320.28686523 C151.05907339 323.12089919 151.71383853 325.58727602 152.25 328.6875 C152.42015625 329.61949219 152.5903125 330.55148437 152.765625 331.51171875 C153 334 153 334 152 337 C151.86059233 339.13944063 151.77466988 341.28253286 151.71875 343.42578125 C151.68136719 344.69744141 151.64398438 345.96910156 151.60546875 347.27929688 C151.56982766 348.62368515 151.53467573 349.96808648 151.5 351.3125 C151.43085267 353.9336959 151.35806505 356.55479885 151.28125 359.17578125 C151.25095703 360.34020752 151.22066406 361.50463379 151.18945312 362.7043457 C151.00748863 365.86973064 150.58373249 368.88607078 150 372 C149.67 372 149.34 372 149 372 C148.25228519 362.68026893 147.89330593 353.4122563 147.875 344.0625 C147.86823242 342.59659424 147.86823242 342.59659424 147.86132812 341.10107422 C147.86326172 340.19244629 147.86519531 339.28381836 147.8671875 338.34765625 C147.86831543 337.53304932 147.86944336 336.71844238 147.87060547 335.87915039 C148 334 148 334 149 333 C149.16017882 328.83535074 148.98248196 325.05273808 148 321 C147.34 321 146.68 321 146 321 C143.85289032 315.37661751 141.86763181 309.72210596 140 304 C139.34 304 138.68 304 138 304 C137.28764791 302.33784512 136.57587225 300.67544056 135.8671875 299.01171875 C135.30040131 297.69687692 134.72269249 296.38667573 134.1328125 295.08203125 C132.84352435 292.20262105 132 290.19320442 132 287 C131.34 286.67 130.68 286.34 130 286 C130 285.01 130 284.02 130 283 C129.34 283 128.68 283 128 283 C127.71125 282.195625 127.4225 281.39125 127.125 280.5625 C126.26737432 277.8673532 126.26737432 277.8673532 124 277 C123.79785355 275.35942199 123.59756323 273.71859354 123.40673828 272.07666016 C122.64070918 268.16558961 120.71457212 264.7262982 118.9375 261.1875 C118.19332462 259.68261202 117.45227657 258.17617221 116.71484375 256.66796875 C116.38605225 256.01078857 116.05726074 255.3536084 115.71850586 254.67651367 C115 253 115 253 115 251 C114.34 251 113.68 251 113 251 C112.16260219 248.8765984 111.33019717 246.7512272 110.5 244.625 C110.0359375 243.44164062 109.571875 242.25828125 109.09375 241.0390625 C108 238 108 238 108 236 C107.34 236 106.68 236 106 236 C105.60167969 234.98679687 105.20335937 233.97359375 104.79296875 232.9296875 C104.25795321 231.57806929 103.72278904 230.22650991 103.1875 228.875 C102.92646484 228.20984375 102.66542969 227.5446875 102.39648438 226.859375 C101.14699228 223.71250602 99.85205067 220.71226406 98.30078125 217.6953125 C97 215 97 215 97 212 C96.34 211.67 95.68 211.34 95 211 C93.73207305 208.59884503 92.56377152 206.2161863 91.4375 203.75 C91.12103516 203.08097656 90.80457031 202.41195312 90.47851562 201.72265625 C88.83355976 198.16731639 87.55390741 194.91529075 87 191 C86.01 190.67 85.02 190.34 84 190 C83.9175 189.360625 83.835 188.72125 83.75 188.0625 C82.86718982 184.45769176 81.42069826 181.33564223 79.83984375 177.98828125 C79 176 79 176 79 174 C78.01 174 77.02 174 76 174 C75.87367188 173.28328125 75.74734375 172.5665625 75.6171875 171.828125 C75.00062576 169.00286741 74.16618422 166.44577929 73.125 163.75 C72.63386719 162.44289063 72.63386719 162.44289063 72.1328125 161.109375 C71.12921424 158.66186646 71.12921424 158.66186646 68 158 C67.92910156 156.88238281 67.85820312 155.76476562 67.78515625 154.61328125 C67.1184314 149.27595479 64.85704483 144.93395777 62.4375 140.1875 C61.59773558 138.51689126 60.7628632 136.84381183 59.93359375 135.16796875 C59.56290771 134.43860107 59.19222168 133.7092334 58.81030273 132.95776367 C58 131 58 131 58 128 C57.34 128 56.68 128 56 128 C56 126.68 56 125.36 56 124 C55.01 123.505 55.01 123.505 54 123 C53.01 122.505 53.01 122.505 52 122 C51.896875 121.01 51.79375 120.02 51.6875 119 C51.21413324 114.84958783 49.43533604 111.95041619 47.33203125 108.3984375 C45.52626015 105.14699042 44.24069486 101.76212696 42.90625 98.296875 C41.31236749 94.25720725 39.40552123 90.60828184 37 87 C36.67 87 36.34 87 36 87 C35.89042969 86.41992188 35.78085937 85.83984375 35.66796875 85.2421875 C34.67930257 80.37119805 33.32101377 76.43102629 31 72 C31 71.01 31 70.02 31 69 C30.01 69 29.02 69 28 69 C28 67.02 28 65.04 28 63 C27.34 62.67 26.68 62.34 26 62 C25.3671875 60.15234375 25.3671875 60.15234375 24.875 57.9375 C24.70742188 57.20402344 24.53984375 56.47054687 24.3671875 55.71484375 C24.24601562 55.14894531 24.12484375 54.58304687 24 54 C22.68 53.67 21.36 53.34 20 53 C20 50.36 20 47.72 20 45 C19.34 44.67 18.68 44.34 18 44 C16.9296875 41.71484375 16.9296875 41.71484375 15.875 38.9375 C15.52179688 38.01839844 15.16859375 37.09929687 14.8046875 36.15234375 C14.53914063 35.44207031 14.27359375 34.73179687 14 34 C13.34 34 12.68 34 12 34 C11.88664307 33.13270264 11.77328613 32.26540527 11.65649414 31.37182617 C10.98849004 27.94088359 9.9461673 25.22350628 8.49609375 22.05078125 C8.00302734 20.95572266 7.50996094 19.86066406 7.00195312 18.73242188 C6.48568359 17.60384766 5.96941406 16.47527344 5.4375 15.3125 C4.41033439 13.06088169 3.38795679 10.80707107 2.37109375 8.55078125 C1.91661865 7.55731689 1.46214355 6.56385254 0.99389648 5.5402832 C0 3 0 3 0 0 Z " fill="#650001" transform="translate(268,202)"/>
<path d="M0 0 C0.33 0 0.66 0 1 0 C1.16763742 5.21424594 1.32819469 10.42864348 1.48217773 15.64331055 C1.53556608 17.41745885 1.59089298 19.19154991 1.64819336 20.96557617 C1.73019269 23.51468565 1.80523144 26.06391928 1.87890625 28.61328125 C1.90594131 29.40712723 1.93297638 30.20097321 1.96083069 31.01887512 C2.05004432 34.30636716 2.04883406 36.85349781 1 40 C0.99560782 42.11391841 1.0589927 44.22815927 1.15625 46.33984375 C1.21123764 47.70081149 1.26530412 49.06181666 1.31860352 50.42285156 C1.34850372 51.15443481 1.37840393 51.88601807 1.40921021 52.63977051 C2.15513117 71.51771391 1.86630011 90.34005053 1.40625 109.22241211 C1.38090683 110.28546066 1.35556366 111.34850922 1.32945251 112.44377136 C1.28215036 114.38673276 1.23210471 116.32963147 1.17799377 118.27241516 C0.76687631 134.64530883 0.95552586 151.02875333 1.21875 167.40234375 C1.229735 168.08629038 1.24072 168.77023702 1.25203788 169.47490931 C1.29835951 172.34963903 1.34488125 175.2243655 1.39144617 178.09909129 C1.88513623 208.77523401 2.08873645 239.44500719 2.0625 270.125 C2.0614369 271.50680954 2.0614369 271.50680954 2.06035233 272.91653442 C2.04996601 285.99120231 2.02906833 299.06584601 2.00520325 312.1404953 C1.98081147 325.54527895 1.95827075 338.95005685 1.94658184 352.3548584 C1.94163605 357.68821522 1.93184753 363.02153337 1.91815186 368.35487461 C1.91073065 371.61846603 1.90738636 374.88205214 1.9051857 378.14565086 C1.90330782 379.65745549 1.89969532 381.16925907 1.89425278 382.68105507 C1.88708503 384.73454342 1.88658446 386.78805188 1.88647461 388.84155273 C1.884254 389.98986069 1.88203339 391.13816864 1.87974548 392.3212738 C1.81685203 394.97257992 1.81685203 394.97257992 3 397 C1.68 397 0.36 397 -1 397 C-1.02292661 349.74611246 -1.0405288 302.49222551 -1.05106533 255.23833349 C-1.05231592 249.65001854 -1.05361026 244.0617036 -1.05493164 238.47338867 C-1.05519395 237.36093189 -1.05545626 236.2484751 -1.05572652 235.10230751 C-1.06006888 217.1279672 -1.06794851 199.15363012 -1.0771528 181.17929172 C-1.08652928 162.71364822 -1.09206405 144.2480064 -1.09408849 125.78236061 C-1.09545544 114.40303105 -1.09976096 103.02371061 -1.10791647 91.64438386 C-1.11323327 83.8239315 -1.11479316 76.0034838 -1.11350138 68.18302976 C-1.11286566 63.68205694 -1.11378757 59.18109996 -1.11920547 54.68013 C-1.14013599 36.42887061 -1.0488554 18.22890861 0 0 Z " fill="#E0050B" transform="translate(267,412)"/>
<path d="M0 0 C0.99 0.33 1.98 0.66 3 1 C2.67 2.32 2.34 3.64 2 5 C2.66 5.33 3.32 5.66 4 6 C5.24096326 8.59021813 6.39317756 11.16585136 7.5 13.8125 C10.01593789 21.46368618 10.01593789 21.46368618 15 27 C15.70905938 28.98536627 16.36694179 30.98910922 17 33 C18.42040307 36.45837268 19.89995824 39.80761199 21.625 43.125 C22.91254783 45.81714547 23.42071756 48.10358779 24 51 C24.66 51.33 25.32 51.66 26 52 C26.90551758 53.72363281 26.90551758 53.72363281 27.83203125 55.953125 C29.25884162 59.29491729 30.73774651 62.59012076 32.32421875 65.859375 C32.71287109 66.66503906 33.10152344 67.47070312 33.50195312 68.30078125 C34.30067149 69.95085181 35.10282773 71.59926214 35.90820312 73.24609375 C36.29298828 74.04660156 36.67777344 74.84710938 37.07421875 75.671875 C37.42057373 76.3844043 37.76692871 77.09693359 38.1237793 77.83105469 C39 80 39 80 39.49536133 82.70800781 C39.66189209 83.46436523 39.82842285 84.22072266 40 85 C40.99 85.495 40.99 85.495 42 86 C43.04018154 87.86305495 44.00885674 89.76641357 44.9375 91.6875 C45.69353516 93.24017578 45.69353516 93.24017578 46.46484375 94.82421875 C46.97144531 95.87222656 47.47804688 96.92023438 48 98 C48.50789062 98.99773437 49.01578125 99.99546875 49.5390625 101.0234375 C50.97743564 103.95402663 52.22331754 106.90801525 53.4375 109.9375 C54.88571704 113.47027187 56.36903609 116.83765146 58.3125 120.125 C60 123 60 123 60 125 C60.99 125.495 60.99 125.495 62 126 C62.3449145 127.33038449 62.67516582 128.66457061 63 130 C64.93824125 134.26413075 67.30140421 138.10117169 69.9140625 141.97265625 C71.1646198 144.30732978 71.48574686 146.40910632 72 149 C72.80203365 150.75395555 73.65798666 152.48412873 74.5625 154.1875 C77 158.79320113 77 158.79320113 77 161 C81.31385796 157.45647382 82.9721398 153.04807753 85 148 C86.13665504 151.40996511 85.91583208 151.86305848 84.56640625 155.01171875 C84.24736328 155.76904297 83.92832031 156.52636719 83.59960938 157.30664062 C83.25736328 158.09232422 82.91511719 158.87800781 82.5625 159.6875 C82.22412109 160.48478516 81.88574219 161.28207031 81.53710938 162.10351562 C80.6999299 164.07265607 79.8510647 166.03682084 79 168 C75.82039223 166.41019611 75.18649172 163.13207386 73.8828125 159.984375 C71.4090187 154.17331412 68.83124226 148.43850365 66.0546875 142.765625 C65.71874069 142.0788266 65.38279388 141.3920282 65.03666687 140.68441772 C64.34244115 139.26861771 63.6472541 137.8532887 62.95114136 136.43841553 C57.31485814 124.97660372 51.77440298 113.47960231 46.4375 101.875 C41.74990127 91.68636196 36.91546961 81.58011117 32 71.5 C26.43470396 60.08628943 20.98811439 48.62972898 15.68310547 37.09228516 C13.01043577 31.2898561 10.29640857 25.51316993 7.4921875 19.7734375 C6.64479004 18.03416992 6.64479004 18.03416992 5.78027344 16.25976562 C4.69929522 14.04934054 3.61168754 11.84214178 2.51660156 9.63867188 C2.03932617 8.66220703 1.56205078 7.68574219 1.0703125 6.6796875 C0.64508301 5.82101074 0.21985352 4.96233398 -0.21826172 4.07763672 C-0.47623535 3.3920166 -0.73420898 2.70639648 -1 2 C-0.67 1.34 -0.34 0.68 0 0 Z " fill="#740001" transform="translate(513,392)"/>
<path d="M0 0 C1.19979492 -0.00580078 1.19979492 -0.00580078 2.42382812 -0.01171875 C7.03633043 -0.00483955 11.63645031 0.10547452 16.24291992 0.33666992 C35.15888971 1.28580795 54.077694 1.45105413 73.01318359 1.65722656 C77.62665913 1.70825876 82.24008418 1.76350973 86.85351562 1.81835938 C95.83980022 1.92459982 104.82612943 2.0263186 113.8125 2.125 C113.8125 2.455 113.8125 2.785 113.8125 3.125 C112.60473404 3.12277939 111.39696808 3.12055878 110.15260315 3.11827087 C98.7503954 3.09796727 87.34819133 3.08299311 75.94596958 3.07318783 C70.08449612 3.06797733 64.2230373 3.06091304 58.36157227 3.04956055 C52.70112401 3.03866644 47.04068979 3.03270935 41.38023186 3.03012276 C39.22457597 3.02828025 37.06892083 3.02468234 34.91327095 3.01926994 C31.8856047 3.01197291 28.85799594 3.0110127 25.83032227 3.01147461 C24.94630737 3.00787933 24.06229248 3.00428406 23.15148926 3.00057983 C18.26798139 3.00860076 13.52651398 3.29188413 8.68311977 3.92893314 C5.72191783 4.23930811 3.0481504 3.72242929 0.1484375 3.18359375 C-3.42376644 3.09398997 -5.89016076 3.72669078 -9.1875 5.125 C-10.87037456 7.6003393 -11.98565103 9.55505278 -13.125 12.25 C-13.42728516 12.90871094 -13.72957031 13.56742188 -14.04101562 14.24609375 C-14.77888055 15.86236929 -15.48632348 17.49247351 -16.1875 19.125 C-16.8475 18.795 -17.5075 18.465 -18.1875 18.125 C-16.44327498 12.2580613 -14.06028901 6.5298947 -11.1875 1.125 C-7.74119397 -0.59815302 -3.79004423 -0.01663516 0 0 Z " fill="#DA0108" transform="translate(612.1875,194.875)"/>
<path d="M0 0 C1.81982422 0.17089844 1.81982422 0.17089844 4 1 C5.48876953 3.25878906 5.48876953 3.25878906 6.8828125 6.265625 C7.40576904 7.37357422 7.92872559 8.48152344 8.4675293 9.62304688 C9.01449463 10.81994141 9.56145996 12.01683594 10.125 13.25 C10.69772987 14.48039788 11.27171508 15.71021216 11.84692383 16.93945312 C12.72138847 18.81002865 13.59418581 20.68126356 14.46095276 22.55541992 C16.25204058 26.42604233 18.10018647 30.26175078 20.00390625 34.078125 C20.45942871 34.99948242 20.91495117 35.92083984 21.38427734 36.87011719 C22.22309596 38.56283995 23.07042614 40.25138519 23.92822266 41.93457031 C27.00479321 48.23452689 30.30911576 56.07265272 28 63 C27.86059233 65.13944063 27.77466988 67.28253286 27.71875 69.42578125 C27.68136719 70.69744141 27.64398438 71.96910156 27.60546875 73.27929688 C27.56982766 74.62368515 27.53467573 75.96808648 27.5 77.3125 C27.43085267 79.9336959 27.35806505 82.55479885 27.28125 85.17578125 C27.23581055 86.92242065 27.23581055 86.92242065 27.18945312 88.7043457 C27.00748863 91.86973064 26.58373249 94.88607078 26 98 C25.67 98 25.34 98 25 98 C24.25228519 88.68026893 23.89330593 79.4122563 23.875 70.0625 C23.87048828 69.08522949 23.86597656 68.10795898 23.86132812 67.10107422 C23.86326172 66.19244629 23.86519531 65.28381836 23.8671875 64.34765625 C23.86831543 63.53304932 23.86944336 62.71844238 23.87060547 61.87915039 C24 60 24 60 25 59 C25.16017882 54.83535074 24.98248196 51.05273808 24 47 C23.34 47 22.68 47 22 47 C19.85289032 41.37661751 17.86763181 35.72210596 16 30 C15.34 30 14.68 30 14 30 C13.28764791 28.33784512 12.57587225 26.67544056 11.8671875 25.01171875 C11.30040131 23.69687692 10.72269249 22.38667573 10.1328125 21.08203125 C8.84352435 18.20262105 8 16.19320442 8 13 C7.34 12.67 6.68 12.34 6 12 C6 11.01 6 10.02 6 9 C5.34 9 4.68 9 4 9 C3.71125 8.195625 3.4225 7.39125 3.125 6.5625 C2.26737432 3.8673532 2.26737432 3.8673532 0 3 C0 2.01 0 1.02 0 0 Z " fill="#640001" transform="translate(392,476)"/>
<path d="M0 0 C3.76112862 3.4549032 5.71708419 7.71175018 8.0625 12.1875 C8.50916016 13.01314453 8.95582031 13.83878906 9.41601562 14.68945312 C12.08428197 19.75078346 13.854934 24.39111738 15 30 C15.66 30 16.32 30 17 30 C17.433125 31.19625 17.86625 32.3925 18.3125 33.625 C19.31676828 36.32217767 20.39461875 38.78923751 21.6875 41.375 C23 44 23 44 23 46 C23.66 46 24.32 46 25 46 C25.29003906 46.95712891 25.29003906 46.95712891 25.5859375 47.93359375 C25.84632813 48.75988281 26.10671875 49.58617187 26.375 50.4375 C26.63023437 51.26121094 26.88546875 52.08492187 27.1484375 52.93359375 C27.80882227 55.17798016 27.80882227 55.17798016 30 56 C30.36033901 57.32628982 30.68712524 58.66171816 31 60 C32.25649407 62.87551759 33.5992471 65.70265818 34.94140625 68.5390625 C36 71 36 71 36 73 C36.66 73 37.32 73 38 73 C38 74.32 38 75.64 38 77 C38.66 77 39.32 77 40 77 C40.12375 77.639375 40.2475 78.27875 40.375 78.9375 C40.58125 79.618125 40.7875 80.29875 41 81 C41.99 81.495 41.99 81.495 43 82 C43.3911938 84.06265822 43.50674519 86.09443267 43.65625 88.1875 C43.7696875 88.785625 43.883125 89.38375 44 90 C44.99 90.495 44.99 90.495 46 91 C49 96.30769231 49 96.30769231 49 100 C49.99 100.495 49.99 100.495 51 101 C52.0194119 101.98020375 53.02246356 102.97803008 54 104 C51.71142578 103.86572266 51.71142578 103.86572266 49 103 C47.22998047 100.49755859 47.22998047 100.49755859 45.6171875 97.1484375 C45.17363922 96.24640846 45.17363922 96.24640846 44.72113037 95.32615662 C43.7549181 93.35041202 42.81507843 91.36329464 41.875 89.375 C41.2038775 87.9897186 40.53117263 86.60520275 39.85693359 85.22143555 C38.18401814 81.77725548 36.53189824 78.32362017 34.88793945 74.86553955 C33.65736979 72.28014213 32.41458551 69.70067329 31.171875 67.12109375 C29.44699673 63.53203898 27.73427034 59.93746672 26.02734375 56.33984375 C23.62903254 51.29832628 21.19666815 46.27397998 18.75390625 41.25390625 C18.37876892 40.48289078 18.00363159 39.71187531 17.61712646 38.91749573 C16.10863373 35.81830669 14.59955428 32.7194082 13.08795166 29.62173462 C0 2.8009016 0 2.8009016 0 0 Z " fill="#6F0000" transform="translate(657,694)"/>
<path d="M0 0 C3.1558131 4.2077508 3.45000192 5.9583509 4 11 C4.33 11.99 4.66 12.98 5 14 C4.34 14 3.68 14 3 14 C2.04195993 22.04069346 1.46818669 29.91749829 2.5 37.97265625 C3.20906693 44.09866477 3.14569233 50.21558319 3.125 56.375 C3.12886719 57.54933594 3.13273437 58.72367188 3.13671875 59.93359375 C3.13542969 61.05636719 3.13414062 62.17914063 3.1328125 63.3359375 C3.13168457 64.35220215 3.13055664 65.3684668 3.12939453 66.41552734 C3 69 3 69 2 72 C1.88734453 73.36515314 1.82417414 74.73477212 1.79467773 76.10424805 C1.77473251 76.92487228 1.75478729 77.74549652 1.73423767 78.59098816 C1.71752518 79.47232925 1.70081268 80.35367035 1.68359375 81.26171875 C1.6524221 82.62040825 1.6524221 82.62040825 1.62062073 84.00654602 C1.55523442 86.90012016 1.49629096 89.79378507 1.4375 92.6875 C1.3943044 94.64909793 1.35068977 96.61068668 1.30664062 98.57226562 C1.19956418 103.38141739 1.09826586 108.19066046 1 113 C0.67 113 0.34 113 0 113 C0 75.71 0 38.42 0 0 Z " fill="#B80003" transform="translate(266,197)"/>
<path d="M0 0 C0.33 0 0.66 0 1 0 C1 39.6 1 79.2 1 120 C0.67 120 0.34 120 0 120 C-0.01030746 118.82902267 -0.02061493 117.65804535 -0.03123474 116.45158386 C-0.128882 105.43007287 -0.23160784 94.40861943 -0.33933926 83.38720226 C-0.39456427 77.72063849 -0.44798367 72.05406956 -0.49731445 66.38745117 C-0.54496412 60.92150121 -0.59730726 55.4556147 -0.65294075 49.98974037 C-0.67336155 47.90171191 -0.69207509 45.81366604 -0.70907402 43.72560692 C-0.733124 40.80683461 -0.76317792 37.88818248 -0.79467773 34.96948242 C-0.8004332 34.10129883 -0.80618866 33.23311523 -0.81211853 32.33862305 C-0.85341035 28.98487367 -0.93233341 26.20299977 -2 23 C-2.125 20.375 -2.125 20.375 -2 18 C-1.67 17.67 -1.34 17.34 -1 17 C-0.92851801 15.64756083 -0.91600546 14.29165633 -0.9375 12.9375 C-0.958125 11.638125 -0.97875 10.33875 -1 9 C-3.33075929 9.95865509 -3.33075929 9.95865509 -5 13 C-5.33 12.01 -5.66 11.02 -6 10 C-4.17811188 6.48187121 -2.19549682 3.29324523 0 0 Z " fill="#940001" transform="translate(757,199)"/>
<path d="M0 0 C0.99 0 1.98 0 3 0 C3.36340286 1.76896102 3.71540883 3.54026626 4.0625 5.3125 C4.25972656 6.29863281 4.45695312 7.28476562 4.66015625 8.30078125 C5 11 5 11 4 14 C3.86059233 16.13944063 3.77466988 18.28253286 3.71875 20.42578125 C3.68136719 21.69744141 3.64398438 22.96910156 3.60546875 24.27929688 C3.56982766 25.62368515 3.53467573 26.96808648 3.5 28.3125 C3.43085267 30.9336959 3.35806505 33.55479885 3.28125 36.17578125 C3.25095703 37.34020752 3.22066406 38.50463379 3.18945312 39.7043457 C3.00748863 42.86973064 2.58373249 45.88607078 2 49 C1.67 49 1.34 49 1 49 C0.25228519 39.68026893 -0.10669407 30.4122563 -0.125 21.0625 C-0.12951172 20.08522949 -0.13402344 19.10795898 -0.13867188 18.10107422 C-0.13673828 17.19244629 -0.13480469 16.28381836 -0.1328125 15.34765625 C-0.13168457 14.53304932 -0.13055664 13.71844238 -0.12939453 12.87915039 C0 11 0 11 1 10 C1.13568319 6.33655389 1.16461426 3.49384279 0 0 Z " fill="#8E0305" transform="translate(416,525)"/>
<path d="M0 0 C0.66 0.33 1.32 0.66 2 1 C1.67 1.66 1.34 2.32 1 3 C0.87994453 4.93971378 0.82266656 6.88343616 0.79467773 8.82666016 C0.77473251 10.04777496 0.75478729 11.26888977 0.73423767 12.52700806 C0.71725344 13.86435823 0.70037463 15.20170975 0.68359375 16.5390625 C0.66302397 17.90384553 0.64202749 19.26862218 0.62062073 20.63339233 C0.56540241 24.22707973 0.51599213 27.8208246 0.46777344 31.41461182 C0.41755663 35.08114746 0.36187151 38.74759956 0.30664062 42.4140625 C0.199062 49.60930426 0.09761643 56.80461546 0 64 C-0.33 64 -0.66 64 -1 64 C-1 59.71 -1 55.42 -1 51 C-1.66 51 -2.32 51 -3 51 C-2.67 49.68 -2.34 48.36 -2 47 C-2.33 47 -2.66 47 -3 47 C-3 45.02 -3 43.04 -3 41 C-2.67 41 -2.34 41 -2 41 C-1.505 38.03 -1.505 38.03 -1 35 C-1.66 35 -2.32 35 -3 35 C-2.67 34.34 -2.34 33.68 -2 33 C-1.91599471 31.40552536 -1.89272533 29.80759455 -1.90234375 28.2109375 C-1.90556641 27.26992188 -1.90878906 26.32890625 -1.91210938 25.359375 C-1.92048828 24.37453125 -1.92886719 23.3896875 -1.9375 22.375 C-1.94201172 21.38242187 -1.94652344 20.38984375 -1.95117188 19.3671875 C-1.96297855 16.9113984 -1.979446 14.45572896 -2 12 C-2.66 13.32 -3.32 14.64 -4 16 C-4.66 16 -5.32 16 -6 16 C-5.7452486 14.68428397 -5.47065859 13.37239624 -5.1875 12.0625 C-5.03667969 11.33160156 -4.88585937 10.60070312 -4.73046875 9.84765625 C-4.48941406 9.23792969 -4.24835937 8.62820313 -4 8 C-3.01 7.67 -2.02 7.34 -1 7 C-1.33 6.01 -1.66 5.02 -2 4 C-1.0625 1.8125 -1.0625 1.8125 0 0 Z " fill="#B41010" transform="translate(605,523)"/>
<path d="M0 0 C8.31962595 0.54134552 16.57050765 1.3787294 24.8359375 2.46484375 C27.7339126 2.84521161 30.63352261 3.18652043 33.5390625 3.50390625 C34.64350708 3.6287439 34.64350708 3.6287439 35.77026367 3.75610352 C37.19151894 3.91604877 38.61356775 4.06912453 40.03637695 4.21459961 C41.70042369 4.4069372 43.35292147 4.69474993 45 5 C45.495 5.99 45.495 5.99 46 7 C48.80478195 7.91485573 48.80478195 7.91485573 52.0625 8.625 C53.71958984 9.01558594 53.71958984 9.01558594 55.41015625 9.4140625 C56.26480469 9.60742188 57.11945312 9.80078125 58 10 C54.67142535 11.09927523 52.44999843 10.86109362 49.0625 10.0625 C45.61484331 9.25786915 42.54398638 8.89222224 39 9 C39 8.34 39 7.68 39 7 C38.37633545 6.9575415 37.7526709 6.91508301 37.11010742 6.87133789 C29.07315152 6.24088837 21.23450489 4.90362532 13.3125 3.4375 C12.02666016 3.20353516 10.74082031 2.96957031 9.41601562 2.72851562 C6.27653148 2.15663933 3.13792014 1.58038572 0 1 C0 0.67 0 0.34 0 0 Z " fill="#DC1014" transform="translate(649,787)"/>
<path d="M0 0 C0.66 0 1.32 0 2 0 C2.0494009 5.78408559 2.08572 11.56804864 2.10986328 17.35229492 C2.11992707 19.32041564 2.13357934 21.28852138 2.15087891 23.2565918 C2.17511059 26.08385918 2.18647923 28.91092905 2.1953125 31.73828125 C2.20563507 32.61962234 2.21595764 33.50096344 2.22659302 34.40901184 C2.22674408 35.22963608 2.22689514 36.05026031 2.22705078 36.89575195 C2.231492 37.61745071 2.23593323 38.33914948 2.24050903 39.0827179 C2 41 2 41 0 44 C-0.36275656 41.73052303 -0.71493186 39.45935265 -1.0625 37.1875 C-1.25972656 35.92292969 -1.45695312 34.65835938 -1.66015625 33.35546875 C-2 30 -2 30 -1 27 C-1.39397335 24.36195411 -1.39397335 24.36195411 -2 22 C-1.67 22 -1.34 22 -1 22 C-0.67 14.74 -0.34 7.48 0 0 Z " fill="#B1080B" transform="translate(418,568)"/>
<path d="M0 0 C0.94101562 0.00322266 1.88203125 0.00644531 2.8515625 0.00976562 C3.83640625 0.01814453 4.82125 0.02652344 5.8359375 0.03515625 C6.82851563 0.03966797 7.82109375 0.04417969 8.84375 0.04882812 C11.2995391 0.0606348 13.75520854 0.07710225 16.2109375 0.09765625 C16.2109375 0.75765625 16.2109375 1.41765625 16.2109375 2.09765625 C15.62078857 2.13205811 15.03063965 2.16645996 14.42260742 2.2019043 C11.74567035 2.37179748 9.07274046 2.57803066 6.3984375 2.78515625 C5.0052832 2.86540039 5.0052832 2.86540039 3.58398438 2.94726562 C-1.74334049 3.22696523 -1.74334049 3.22696523 -5.7578125 6.34765625 C-6.098125 7.25515625 -6.4384375 8.16265625 -6.7890625 9.09765625 C-7.24667969 9.98066406 -7.70429687 10.86367187 -8.17578125 11.7734375 C-8.81966797 13.07861328 -8.81966797 13.07861328 -9.4765625 14.41015625 C-9.91355469 15.29316406 -10.35054687 16.17617187 -10.80078125 17.0859375 C-11.28998047 18.08173828 -11.28998047 18.08173828 -11.7890625 19.09765625 C-12.4490625 18.76765625 -13.1090625 18.43765625 -13.7890625 18.09765625 C-12.04483748 12.23071755 -9.66185151 6.50255095 -6.7890625 1.09765625 C-4.33631109 -0.12871945 -2.7384844 -0.01649689 0 0 Z " fill="#D90D12" transform="translate(607.7890625,194.90234375)"/>
<path d="M0 0 C3.1558131 4.2077508 3.45000192 5.9583509 4 11 C4.33 11.99 4.66 12.98 5 14 C4.34 14 3.68 14 3 14 C1.94847785 23.31348189 1.47904493 32.64333511 1 42 C0.67 42 0.34 42 0 42 C0 28.14 0 14.28 0 0 Z " fill="#A20004" transform="translate(266,197)"/>
<path d="M0 0 C0.07839111 0.57685547 0.15678223 1.15371094 0.23754883 1.74804688 C1.48309243 9.30947536 4.34831298 15.64521608 7.6875 22.5 C8.71925346 24.63203667 9.7443796 26.76729778 10.76171875 28.90625 C11.21506592 29.83759766 11.66841309 30.76894531 12.13549805 31.72851562 C12.56342651 32.85290039 12.56342651 32.85290039 13 34 C12.67 34.66 12.34 35.32 12 36 C7.80920652 27.81434624 3.72054107 19.59932724 0 11.1875 C-0.45354858 10.17526367 -0.45354858 10.17526367 -0.91625977 9.14257812 C-2.1768096 6.25161874 -3 4.18975324 -3 1 C-1 0 -1 0 0 0 Z " fill="#F52122" transform="translate(270,195)"/>
<path d="M0 0 C1.50548895 4.6837434 0.29656743 7.68695134 -1.875 11.9375 C-5.19817903 18.3791695 -5.19817903 18.3791695 -7 21 C-7.66 21 -8.32 21 -9 21 C-7.50640515 16.15713185 -5.54966433 11.68649104 -3.375 7.125 C-2.88773438 6.09246094 -2.88773438 6.09246094 -2.390625 5.0390625 C-1.59676528 3.35794781 -0.79880442 1.67877079 0 0 Z " fill="#D50C11" transform="translate(559,289)"/>
<path d="M0 0 C3.06306731 1.53153365 3.56074668 3.91588574 5 7 C5.33193359 7.70833984 5.66386719 8.41667969 6.00585938 9.14648438 C7.10330948 11.50730144 8.1784664 13.87731847 9.25 16.25 C9.62640625 17.0646875 10.0028125 17.879375 10.390625 18.71875 C10.74125 19.49734375 11.091875 20.2759375 11.453125 21.078125 C11.77442383 21.78356445 12.09572266 22.48900391 12.42675781 23.21582031 C13 25 13 25 12 27 C0 3.26213592 0 3.26213592 0 0 Z " fill="#F61C1E" transform="translate(350,378)"/>
<path d="M0 0 C0.66 0.33 1.32 0.66 2 1 C1.67 1.66 1.34 2.32 1 3 C0.84995027 4.3734635 0.75161994 5.7528526 0.68359375 7.1328125 C0.64169922 7.93847656 0.59980469 8.74414062 0.55664062 9.57421875 C0.49766602 10.83685547 0.49766602 10.83685547 0.4375 12.125 C0.39431641 12.97449219 0.35113281 13.82398438 0.30664062 14.69921875 C0.20045764 16.79928223 0.09971503 18.89961948 0 21 C-0.33 21 -0.66 21 -1 21 C-1.33 18.03 -1.66 15.06 -2 12 C-2.66 13.32 -3.32 14.64 -4 16 C-4.66 16 -5.32 16 -6 16 C-5.7452486 14.68428397 -5.47065859 13.37239624 -5.1875 12.0625 C-5.03667969 11.33160156 -4.88585937 10.60070312 -4.73046875 9.84765625 C-4.48941406 9.23792969 -4.24835937 8.62820313 -4 8 C-3.01 7.67 -2.02 7.34 -1 7 C-1.33 6.01 -1.66 5.02 -2 4 C-1.0625 1.8125 -1.0625 1.8125 0 0 Z " fill="#AA080B" transform="translate(605,523)"/>
<path d="M0 0 C0.33 0.66 0.66 1.32 1 2 C0.3984375 3.7421875 0.3984375 3.7421875 -0.625 5.875 C-2.42669953 9.73668466 -4.11916439 13.62519688 -5.75 17.5625 C-6.17796875 18.59503906 -6.6059375 19.62757813 -7.046875 20.69140625 C-7.36140625 21.45324219 -7.6759375 22.21507812 -8 23 C-8.99 23 -9.98 23 -11 23 C-9.3578095 19.3525149 -7.71064184 15.70729935 -6.0625 12.0625 C-5.59392578 11.02158203 -5.12535156 9.98066406 -4.64257812 8.90820312 C-4.19462891 7.91884766 -3.74667969 6.92949219 -3.28515625 5.91015625 C-2.87144775 4.99371338 -2.45773926 4.07727051 -2.03149414 3.13305664 C-1 1 -1 1 0 0 Z " fill="#A50607" transform="translate(524,368)"/>
<path d="M0 0 C0.94101562 0.00322266 1.88203125 0.00644531 2.8515625 0.00976562 C3.83640625 0.01814453 4.82125 0.02652344 5.8359375 0.03515625 C6.82851563 0.03966797 7.82109375 0.04417969 8.84375 0.04882812 C11.2995391 0.0606348 13.75520854 0.07710225 16.2109375 0.09765625 C16.2109375 0.75765625 16.2109375 1.41765625 16.2109375 2.09765625 C8.6209375 2.42765625 1.0309375 2.75765625 -6.7890625 3.09765625 C-6.7890625 2.43765625 -6.7890625 1.77765625 -6.7890625 1.09765625 C-4.33631109 -0.12871945 -2.7384844 -0.01649689 0 0 Z " fill="#D31618" transform="translate(607.7890625,194.90234375)"/>
<path d="M0 0 C1.13665504 3.40996511 0.91583208 3.86305848 -0.43359375 7.01171875 C-0.75263672 7.76904297 -1.07167969 8.52636719 -1.40039062 9.30664062 C-1.74263672 10.09232422 -2.08488281 10.87800781 -2.4375 11.6875 C-2.77587891 12.48478516 -3.11425781 13.28207031 -3.46289062 14.10351562 C-4.3000701 16.07265607 -5.1489353 18.03682084 -6 20 C-8 18 -8 18 -8.375 15.625 C-7.88200555 12.17403883 -6.45223985 11.45223985 -4 9 C-2.49383424 6.06908285 -1.22788803 3.05665745 0 0 Z " fill="#920404" transform="translate(598,540)"/>
<path d="M0 0 C0.66 0.33 1.32 0.66 2 1 C0.7023817 6.29860806 -1.15015702 10.34525646 -4 15 C-4.66 15 -5.32 15 -6 15 C-4.36041242 9.76727367 -2.61047965 4.84803364 0 0 Z " fill="#D70C12" transform="translate(581,240)"/>
<path d="M0 0 C0.66 0.33 1.32 0.66 2 1 C0.3833652 7.03280791 -1.16709462 10.950809 -6 15 C-4.40109514 9.80355921 -2.25861997 4.93387858 0 0 Z " fill="#D70E13" transform="translate(590,220)"/>
<path d="M0 0 C0.99 0 1.98 0 3 0 C5.31 4.95 7.62 9.9 10 15 C9.01 15 8.02 15 7 15 C6.01 11.7 5.02 8.4 4 5 C3.34 5 2.68 5 2 5 C2 3.68 2 2.36 2 1 C1.34 0.67 0.68 0.34 0 0 Z " fill="#F10811" transform="translate(675,738)"/>
<path d="M0 0 C2.94678433 2.94678433 4.32041919 5.24093818 6 9 C6 9.66 6 10.32 6 11 C5.34 11 4.68 11 4 11 C4 10.34 4 9.68 4 9 C3.34 9 2.68 9 2 9 C1.34 6.03 0.68 3.06 0 0 Z " fill="#EF0A11" transform="translate(633,648)"/>
<path d="M0 0 C0.99 1.32 1.98 2.64 3 4 C2.67 4.66 2.34 5.32 2 6 C1.7724985 7.87056791 1.59037189 9.74685958 1.4375 11.625 C1.35371094 12.62789062 1.26992188 13.63078125 1.18359375 14.6640625 C1.12300781 15.43492187 1.06242187 16.20578125 1 17 C0.67 17 0.34 17 0 17 C0 11.39 0 5.78 0 0 Z " fill="#8F0104" transform="translate(266,197)"/>
<path d="M0 0 C0.66 0 1.32 0 2 0 C1.01 2.97 0.02 5.94 -1 9 C-1.66 9 -2.32 9 -3 9 C-2.69181644 7.68647977 -2.37832335 6.37420428 -2.0625 5.0625 C-1.88847656 4.33160156 -1.71445312 3.60070312 -1.53515625 2.84765625 C-1 1 -1 1 0 0 Z " fill="#9B0406" transform="translate(602,530)"/>
<path d="M0 0 C0.66 0 1.32 0 2 0 C3.32 2.97 4.64 5.94 6 9 C5.01 9.495 5.01 9.495 4 10 C1.80902348 6.6659053 0.56545837 3.95820859 0 0 Z " fill="#F20910" transform="translate(690,767)"/>
<path d="M0 0 C3.0916909 2.52956528 3.90931332 5.22454612 5 9 C3.0625 8.4375 3.0625 8.4375 1 7 C0.25 3.375 0.25 3.375 0 0 Z " fill="#F10911" transform="translate(665,714)"/>
<path d="M0 0 C2.15377564 2.62198774 3.40072174 4.64404172 4 8 C1 7 1 7 -0.25 4.5625 C-1 2 -1 2 0 0 Z " fill="#E20D12" transform="translate(597,572)"/>
<path d="M0 0 C0.98120464 3.05263664 0.98120464 4.94736336 0 8 C-0.99 8 -1.98 8 -3 8 C-1.125 2.25 -1.125 2.25 0 0 Z " fill="#CD0B10" transform="translate(539,333)"/>
<path d="M0 0 C1 4 1 4 1 4 Z " fill="#A80F0E" transform="translate(602,538)"/>
<path d="M0 0 C3 1 3 1 3 1 Z " fill="#CC2022" transform="translate(317,799)"/>
<path d="" fill="#F4312D" transform="translate(0,0)"/>
<path d="" fill="#F32D2B" transform="translate(0,0)"/>
<path d="M0 0 C2 1 2 1 2 1 Z " fill="#EC2928" transform="translate(442,582)"/>
<path d="" fill="#B91114" transform="translate(0,0)"/>
<path d="" fill="#E22323" transform="translate(0,0)"/>
<path d="" fill="#D52222" transform="translate(0,0)"/>
<path d="" fill="#F33734" transform="translate(0,0)"/>
<path d="" fill="#D82729" transform="translate(0,0)"/>
<path d="" fill="#F53835" transform="translate(0,0)"/>
<path d="" fill="#905851" transform="translate(0,0)"/>
<path d="" fill="#B43838" transform="translate(0,0)"/>
<path d="" fill="#B81E20" transform="translate(0,0)"/>
<path d="" fill="#CC2325" transform="translate(0,0)"/>
<path d="" fill="#BA1F20" transform="translate(0,0)"/>
<path d="" fill="#CE2526" transform="translate(0,0)"/>
<path d="" fill="#BA1E1E" transform="translate(0,0)"/>
<path d="" fill="#CC2122" transform="translate(0,0)"/>
<path d="" fill="#D02021" transform="translate(0,0)"/>
<path d="" fill="#DE2626" transform="translate(0,0)"/>
<path d="" fill="#CE2423" transform="translate(0,0)"/>
<path d="" fill="#E62223" transform="translate(0,0)"/>
<path d="" fill="#D12021" transform="translate(0,0)"/>
<path d="" fill="#E62423" transform="translate(0,0)"/>
<path d="" fill="#C82324" transform="translate(0,0)"/>
<path d="" fill="#ED2826" transform="translate(0,0)"/>
<path d="" fill="#CB2927" transform="translate(0,0)"/>
<path d="" fill="#C82A2A" transform="translate(0,0)"/>
<path d="" fill="#EB2625" transform="translate(0,0)"/>
<path d="" fill="#D32B2B" transform="translate(0,0)"/>
<path d="" fill="#D32927" transform="translate(0,0)"/>
<path d="" fill="#EC2D2D" transform="translate(0,0)"/>
<path d="" fill="#F0302D" transform="translate(0,0)"/>
<path d="" fill="#F0312D" transform="translate(0,0)"/>
<path d="" fill="#EF2F2E" transform="translate(0,0)"/>
<path d="" fill="#F0322E" transform="translate(0,0)"/>
<path d="" fill="#F32E2E" transform="translate(0,0)"/>
<path d="" fill="#F4332D" transform="translate(0,0)"/>
<path d="" fill="#F52F2D" transform="translate(0,0)"/>
<path d="" fill="#F4312E" transform="translate(0,0)"/>
<path d="" fill="#F5312D" transform="translate(0,0)"/>
<path d="" fill="#F6302E" transform="translate(0,0)"/>
<path d="" fill="#F62F2D" transform="translate(0,0)"/>
<path d="" fill="#F32D2C" transform="translate(0,0)"/>
<path d="" fill="#F02C27" transform="translate(0,0)"/>
<path d="" fill="#EC2B2A" transform="translate(0,0)"/>
<path d="" fill="#EA2B27" transform="translate(0,0)"/>
<path d="" fill="#EA2827" transform="translate(0,0)"/>
<path d="" fill="#BD1013" transform="translate(0,0)"/>
<path d="" fill="#BC1213" transform="translate(0,0)"/>
<path d="" fill="#BC1010" transform="translate(0,0)"/>
<path d="" fill="#E62926" transform="translate(0,0)"/>
<path d="" fill="#BE1214" transform="translate(0,0)"/>
<path d="" fill="#E62423" transform="translate(0,0)"/>
<path d="" fill="#E62424" transform="translate(0,0)"/>
<path d="" fill="#BE1313" transform="translate(0,0)"/>
<path d="" fill="#BE1113" transform="translate(0,0)"/>
<path d="" fill="#B01214" transform="translate(0,0)"/>
<path d="" fill="#DA1B1F" transform="translate(0,0)"/>
<path d="" fill="#D91C1D" transform="translate(0,0)"/>
<path d="" fill="#A60C10" transform="translate(0,0)"/>
<path d="" fill="#C91F21" transform="translate(0,0)"/>
<path d="" fill="#DF2B29" transform="translate(0,0)"/>
<path d="" fill="#CA1E21" transform="translate(0,0)"/>
<path d="" fill="#CE1F1E" transform="translate(0,0)"/>
<path d="" fill="#E42E2E" transform="translate(0,0)"/>
<path d="" fill="#D32023" transform="translate(0,0)"/>
<path d="" fill="#EC2F2D" transform="translate(0,0)"/>
<path d="" fill="#EE302E" transform="translate(0,0)"/>
<path d="" fill="#CD2527" transform="translate(0,0)"/>
<path d="" fill="#EE322F" transform="translate(0,0)"/>
<path d="" fill="#D92A2C" transform="translate(0,0)"/>
<path d="" fill="#DC2A2B" transform="translate(0,0)"/>
<path d="" fill="#D42A2E" transform="translate(0,0)"/>
<path d="" fill="#F53834" transform="translate(0,0)"/>
<path d="" fill="#D32A2D" transform="translate(0,0)"/>
<path d="" fill="#D5292C" transform="translate(0,0)"/>
<path d="" fill="#D82B2C" transform="translate(0,0)"/>
<path d="" fill="#DB2A2C" transform="translate(0,0)"/>
<path d="" fill="#D7302F" transform="translate(0,0)"/>
<path d="" fill="#827D79" transform="translate(0,0)"/>
</svg>
